/* XPM */
static char *result[] = {
/* columns rows colors chars-per-pixel */
"64 64 247 2 ",
"   c black",
".  c #010000",
"X  c #000001",
"o  c #000101",
"O  c #010101",
"+  c #000002",
"@  c #010002",
"#  c #000003",
"$  c #000103",
"%  c #000203",
"&  c #020202",
"*  c #030202",
"=  c #020203",
"-  c #030203",
";  c #040002",
":  c #040202",
">  c #040203",
",  c #020403",
"<  c #030403",
"1  c #050503",
"2  c #000004",
"3  c #000104",
"4  c #000204",
"5  c #000304",
"6  c #000305",
"7  c #000405",
"8  c #010405",
"9  c #020505",
"0  c #030606",
"q  c #040504",
"w  c #050504",
"e  c #060504",
"r  c #070604",
"t  c #060605",
"y  c #040606",
"u  c #050606",
"i  c #060606",
"p  c #070606",
"a  c #060706",
"s  c #070706",
"d  c #0A0007",
"f  c #080404",
"g  c #0A0505",
"h  c #080704",
"j  c #090704",
"k  c #080705",
"l  c #0A0704",
"z  c #080706",
"x  c #0A0804",
"c  c #0A0904",
"v  c #080807",
"b  c #090807",
"n  c #0A0807",
"m  c #0A0907",
"M  c #0B0907",
"N  c #0F0805",
"B  c #0C0907",
"V  c #0C0A07",
"C  c #0D0A07",
"Z  c #0C0C06",
"A  c #03070A",
"S  c #04070A",
"D  c #04080A",
"F  c #05080A",
"G  c #06080A",
"H  c #07090A",
"J  c #0A0908",
"K  c #08090A",
"L  c #0C0A08",
"P  c #0D0A08",
"I  c #0D0B08",
"U  c #0E0A08",
"Y  c #0E0B08",
"T  c #0E0A0B",
"R  c #0C0C0B",
"E  c #0E0D0B",
"W  c #0F0D0B",
"Q  c #100805",
"!  c #110C08",
"~  c #130D08",
"^  c #130D09",
"/  c #100D0B",
"(  c #100E0B",
")  c #110E0B",
"_  c #140D09",
"`  c #150E09",
"'  c #160E09",
"]  c #170E09",
"[  c #170F09",
"{  c #180F09",
"}  c #180F0A",
"|  c #11140C",
" . c #1A100A",
".. c #1C110A",
"X. c #26160C",
"o. c #27160C",
"O. c #2A140A",
"+. c #2C170C",
"@. c #2F190C",
"#. c #30170C",
"$. c #311B0E",
"%. c #331B0E",
"&. c #331C0E",
"*. c #341C0F",
"=. c #341D0F",
"-. c #361C0E",
";. c #391F10",
":. c #19280E",
">. c #182111",
",. c #1B2C11",
"<. c #3B2010",
"1. c #3E2010",
"2. c #3E2111",
"3. c #3F2111",
"4. c #3F2211",
"5. c #422311",
"6. c #432311",
"7. c #422312",
"8. c #432312",
"9. c #432411",
"0. c #442412",
"q. c #452413",
"w. c #452513",
"e. c #462512",
"r. c #462513",
"t. c #472612",
"y. c #482612",
"u. c #482613",
"i. c #492613",
"p. c #492713",
"a. c #4A2713",
"s. c #4B2713",
"d. c #4C2813",
"f. c #502914",
"g. c #512A14",
"h. c #6C3719",
"j. c #753B1B",
"k. c #773C1B",
"l. c #783B1A",
"z. c #7C3E1C",
"x. c #2B4E1B",
"c. c #315B1F",
"v. c #84421E",
"b. c #88431E",
"n. c #8A431E",
"m. c #8A451F",
"M. c #8D461F",
"N. c #9C4C22",
"B. c #9D4D22",
"V. c #9F4F23",
"C. c #A14F23",
"Z. c #A55124",
"A. c #A85324",
"S. c #A85225",
"D. c #A85325",
"F. c #B05726",
"G. c #B15726",
"H. c #B25726",
"J. c #B25826",
"K. c #B65927",
"L. c #B85A27",
"P. c #B75A28",
"I. c #B85A28",
"U. c #BB5C28",
"Y. c #BC5C28",
"T. c #BD5C29",
"R. c #BF5D29",
"E. c #BE5E29",
"W. c #BF5E29",
"Q. c #C7612A",
"!. c #C9622A",
"~. c #C9622B",
"^. c #CB632A",
"/. c #CA632B",
"(. c #CB632B",
"). c #CF652B",
"_. c #CE652C",
"`. c #CF652C",
"'. c #CF662C",
"]. c #D0662C",
"[. c #D1662C",
"{. c #D1672C",
"}. c #D5682D",
"|. c #D7682D",
" X c #D6692D",
".X c #D7692D",
"XX c #D8692D",
"oX c #D86A2E",
"OX c #DA6A2E",
"+X c #DA6B2E",
"@X c #DB6B2E",
"#X c #DC6B2E",
"$X c #DD6B2E",
"%X c #DC6C2E",
"&X c #DD6C2E",
"*X c #DD6C2F",
"=X c #DE6C2E",
"-X c #DE6C2F",
";X c #DF6C2F",
":X c #E06D2F",
">X c #E06E2F",
",X c #E26E2F",
"<X c #E46F30",
"1X c #E67030",
"2X c #E77030",
"3X c #E87130",
"4X c #E87031",
"5X c #EC7331",
"6X c #ED7331",
"7X c #EE7331",
"8X c #EE7431",
"9X c #EF7432",
"0X c #F07432",
"qX c #F07532",
"wX c #F17532",
"eX c #F37632",
"rX c #F47633",
"tX c #F57733",
"yX c #F67733",
"uX c #F67833",
"iX c #F77833",
"pX c #F87834",
"aX c #F97934",
"sX c #FA7934",
"dX c #FC7A34",
"fX c #FD7B34",
"gX c #FD7A35",
"hX c #FE7B34",
"jX c #FE7B35",
"kX c #FF7B35",
"lX c #FF7C35",
"zX c #FF7D35",
"xX c #FF7E35",
"cX c #FF7E36",
"vX c #FF7F36",
"bX c #498D2F",
"nX c #FF8036",
"mX c #FF8137",
"MX c #FF8237",
"NX c #FF8337",
"BX c #FF8238",
"VX c #FF8338",
"CX c #FF8438",
"ZX c #FF8639",
"AX c #FF8739",
"SX c #FF873A",
"DX c #FF8C3B",
/* pixels */
"x.  B v 7 8 8 8 8 8 8 8 8 8 8 8 8 8 8 7 v B M B u 6 8 8 8 8 8 8 8 8 8 8 8 8 8 7 8 m B M 9 7 8 8 8 8 8 8 8 8 8 8 8 8 8 7 y ; :.bX",
"x.  m a u u u u u u u u u u u u u u u u a m M v u u u u u u u u u u u u u u u u u M M M a y u u u u u u u u u u u u u u u p Z >.",
"x.    X.].R.U.U.U.U.U.U.U.U.U.U.U.U.R.].X.  J   h.%XU.U.U.U.U.U.U.U.U.U.U.U.U.!.H._ = a V.`.U.U.U.U.U.U.U.U.U.U.U.U.U.OXv.  > d ",
"x.  @.^.lXyXrXrXrXrXrXrXrXrXrXrXrXrXyXlX^.+.& l.6XzXrXrXrXrXrXrXrXrXrXrXrXrXrXvX3X[ X y ].VXrXrXrXrXrXrXrXrXrXrXrXrXrXlXwXb.< K ",
"x.  d.NX*X@X#X#X#X#X#X#X#X#X#X#X#X#X@X*XNXu.  W.MX|.#X#X#X#X#X#X#X#X#X#X#X#X#X5X[.' + u U.rX#X#X#X#X#X#X#X#X#X#X#X#X#X.XlXoX< A ",
"x.  5.eX:X#X#X#X#X#X#X#X#X#X#X#X#X#X#X:XeX2.  Z.dX#X#X#X#X#X#X#X#X#X#X#X#X#X#X5X[.' + u U.rX#X#X#X#X#X#X#X#X#X#X#X#X#X#XrXU.< F ",
"x.  5.eX:X#X#X#X#X#X#X#X#X#X#X#X#X#X#X:XeX2.  Z.dX#X#X#X#X#X#X#X#X#X#X#X#X#X#X5X[.' + u U.rX#X#X#X#X#X#X#X#X#X#X#X#X#X#XrXU.< F ",
"x.  5.eX:X#X#X#X#X#X#X#X#X#X#X#X#X#X#X:XeX2.  Z.dX#X#X#X#X#X#X#X#X#X#X#X#X#X#X5X[.' + u U.rX#X#X#X#X#X#X#X#X#X#X#X#X#X#XrXU.< F ",
"x.  5.eX:X#X#X#X#X#X#X#X#X#X#X#X#X#X#X:XeX2.  Z.dX#X#X#X#X#X#X#X#X#X#X#X#X#X#X5X[.' + u U.rX#X#X#X#X#X#X#X#X#X#X#X#X#X#XrXU.< F ",
"x.  5.eX:X#X#X#X#X#X#X#X#X#X#X#X#X#X#X:XeX2.  Z.dX#X#X#X#X#X#X#X#X#X#X#X#X#X#X5X[.' + u U.rX#X#X#X#X#X#X#X#X#X#X#X#X#X#XrXU.< F ",
"x.  5.eX:X#X#X#X#X#X#X#X#X#X#X#X#X#X#X:XeX2.  Z.dX#X#X#X#X#X#X#X#X#X#X#X#X#X#X5X[.' + u U.rX#X#X#X#X#X#X#X#X#X#X#X#X#X#XrXU.< F ",
"x.  5.eX:X#X#X#X#X#X#X#X#X#X#X#X#X#X#X:XeX2.  Z.dX#X#X#X#X#X#X#X#X#X#X#X#X#X#X5X[.' + u U.rX#X#X#X#X#X#X#X#X#X#X#X#X#X#XrXU.< F ",
"x.  5.eX:X#X#X#X#X#X#X#X#X#X#X#X#X#X#X:XeX2.  Z.dX#X#X#X#X#X#X#X#X#X#X#X#X#X#X5X[.' + u U.rX#X#X#X#X#X#X#X#X#X#X#X#X#X#XrXU.< F ",
"x.  5.eX:X#X#X#X#X#X#X#X#X#X#X#X#X#X#X:XeX2.  Z.dX#X#X#X#X#X#X#X#X#X#X#X#X#X#X5X[.' + u U.rX#X#X#X#X#X#X#X#X#X#X#X#X#X#XrXU.< F ",
"x.  5.eX:X#X#X#X#X#X#X#X#X#X#X#X#X#X#X:XeX2.  Z.dX#X#X#X#X#X#X#X#X#X#X#X#X#X#X5X[.' + u U.rX#X#X#X#X#X#X#X#X#X#X#X#X#X#XrXU.< F ",
"x.  5.eX:X#X#X#X#X#X#X#X#X#X#X#X#X#X#X:XeX2.  Z.dX#X#X#X#X#X#X#X#X#X#X#X#X#X#X5X[.' + u U.rX#X#X#X#X#X#X#X#X#X#X#X#X#X#XrXU.< F ",
"x.  5.eX:X#X#X#X#X#X#X#X#X#X#X#X#X#X#X:XeX2.  Z.dX#X#X#X#X#X#X#X#X#X#X#X#X#X#X5X[.' + u U.rX#X#X#X#X#X#X#X#X#X#X#X#X#X#XrXU.< F ",
"x.  5.eX:X#X#X#X#X#X#X#X#X#X#X#X#X#X#X:XeX2.  Z.dX#X#X#X#X#X#X#X#X#X#X#X#X#X#X5X[.' + u U.rX#X#X#X#X#X#X#X#X#X#X#X#X#X#XrXU.< F ",
"x.  a.nX-X#X#X#X#X#X#X#X#X#X#X#X#X#X#X-XnXw.  I.nXXX#X#X#X#X#X#X#X#X#X#X#X#X#X5X[.' + u U.rX#X#X#X#X#X#X#X#X#X#X#X#X#XXXgX{.< S ",
"x.  -.=XjXtXrXrXrXrXrXrXrXrXrXrXrXrXtXjX=X%.O n.aXjXrXrXrXrXrXrXrXrXrXrXrXrXrXvX3X[ X y ].VXrXrXrXrXrXrXrXrXrXrXrXrXrXfXsXN.< H ",
"x.  o =.).R.U.U.U.U.U.U.U.U.U.U.U.U.R.).=.o n X j.+XU.U.U.U.U.U.U.U.U.U.U.U.U.!.H._ = a V.`.U.U.U.U.U.U.U.U.U.U.U.U.U..Xm.# e W ",
"x.  b 4 # # # # # # # # # # # # # # # # + y L # + # # # # # # # # # # # # # # # # m L B 2 + # # # # # # # # # # # # # # # 0 l W ",
"x.  i 5 C V B B B B B B B B B B B B B M _ Y M ^ ! n B B B B B B B B B B B B B B B M M M B B B B B B B B B B B B B B B Y u 4 j / ",
"x.  : y.1X}.[.[.[.[.[.[.[.[.[.[.[.[.[.}.2X<.. B.9X[.[.[.[.[.[.[.[.[.[.[.[.[.[.>XQ.` @ u J.4X[.[.[.[.[.[.[.[.[.[.[.[.[.7XC.g w E ",
"x.  1.8XeX6X5X5X5X5X5X5X5X5X5X5X5X5X5XwXxX7.  G.NX5X5X5X5X5X5X5X5X5X5X5X5X5X5XfX:X] + u ~.cX5X5X5X5X5X5X5X5X5X5X5X5X5XqXdXF.< G ",
"x.  t.lX;X#X#X#X#X#X#X#X#X#X#X#X#X#X#X:XeX2.  Z.dX#X#X#X#X#X#X#X#X#X#X#X#X#X#X5X[.' + u U.rX#X#X#X#X#X#X#X#X#X#X#X#X#XOXsX/.< D ",
"x.  5.eX:X#X#X#X#X#X#X#X#X#X#X#X#X#X#X:XeX2.  Z.dX#X#X#X#X#X#X#X#X#X#X#X#X#X#X5X[.' + u U.rX#X#X#X#X#X#X#X#X#X#X#X#X#X#XrXU.< F ",
"x.  5.eX:X#X#X#X#X#X#X#X#X#X#X#X#X#X#X:XeX2.  Z.dX#X#X#X#X#X#X#X#X#X#X#X#X#X#X5X[.' + u U.rX#X#X#X#X#X#X#X#X#X#X#X#X#X#XrXU.< F ",
"x.  5.eX:X#X#X#X#X#X#X#X#X#X#X#X#X#X#X:XeX2.  Z.dX#X#X#X#X#X#X#X#X#X#X#X#X#X#X5X[.' + u U.rX#X#X#X#X#X#X#X#X#X#X#X#X#X#XrXU.< F ",
"x.  5.eX:X#X#X#X#X#X#X#X#X#X#X#X#X#X#X:XeX2.  Z.dX#X#X#X#X#X#X#X#X#X#X#X#X#X#X5X[.' + u U.rX#X#X#X#X#X#X#X#X#X#X#X#X#X#XrXU.< F ",
"x.  5.eX:X#X#X#X#X#X#X#X#X#X#X#X#X#X#X:XeX2.  Z.dX#X#X#X#X#X#X#X#X#X#X#X#X#X#X5X[.' + u U.rX#X#X#X#X#X#X#X#X#X#X#X#X#X#XrXU.< F ",
"x.  5.eX:X#X#X#X#X#X#X#X#X#X#X#X#X#X#X:XeX2.  Z.dX#X#X#X#X#X#X#X#X#X#X#X#X#X#X5X[.' + u U.rX#X#X#X#X#X#X#X#X#X#X#X#X#X#XrXU.< F ",
"x.  5.eX:X#X#X#X#X#X#X#X#X#X#X#X#X#X#X:XeX2.  Z.dX#X#X#X#X#X#X#X#X#X#X#X#X#X#X5X[.' + u U.rX#X#X#X#X#X#X#X#X#X#X#X#X#X#XrXU.< F ",
"x.  5.eX:X#X#X#X#X#X#X#X#X#X#X#X#X#X#X:XeX2.  Z.dX#X#X#X#X#X#X#X#X#X#X#X#X#X#X5X[.' + u U.rX#X#X#X#X#X#X#X#X#X#X#X#X#X#XrXU.< F ",
"x.  5.eX:X#X#X#X#X#X#X#X#X#X#X#X#X#X#X:XeX2.  Z.dX#X#X#X#X#X#X#X#X#X#X#X#X#X#X5X[.' + u U.rX#X#X#X#X#X#X#X#X#X#X#X#X#X#XrXU.< F ",
"x.  5.eX:X#X#X#X#X#X#X#X#X#X#X#X#X#X#X:XeX2.  Z.dX#X#X#X#X#X#X#X#X#X#X#X#X#X#X5X[.' + u U.rX#X#X#X#X#X#X#X#X#X#X#X#X#X#XrXU.< F ",
"x.  5.eX:X#X#X#X#X#X#X#X#X#X#X#X#X#X#X:XeX2.  Z.dX#X#X#X#X#X#X#X#X#X#X#X#X#X#X5X[.' + u U.rX#X#X#X#X#X#X#X#X#X#X#X#X#X#XrXU.< F ",
"x.  5.eX:X#X#X#X#X#X#X#X#X#X#X#X#X#X#X:XeX2.  Z.dX#X#X#X#X#X#X#X#X#X#X#X#X#X#X5X[.' + u U.rX#X#X#X#X#X#X#X#X#X#X#X#X#X#XrXU.< F ",
"x.  5.eX:X#X#X#X#X#X#X#X#X#X#X#X#X#X#X:XeX2.  Z.dX#X#X#X#X#X#X#X#X#X#X#X#X#X#X5X[.' + u U.rX#X#X#X#X#X#X#X#X#X#X#X#X#X#XrXU.< F ",
"x.  s.AXzXdXdXdXdXdXdXdXdXdXdXdXdXdXdXzXAXr.  T.DXdXdXdXdXdXdXdXdXdXdXdXdXdXdXVX0X{ X y  XSXdXdXdXdXdXdXdXdXdXdXdXdXdXdXSX X, A ",
"x.  &.K.A.Z.Z.Z.Z.Z.Z.Z.Z.Z.Z.Z.Z.Z.Z.A.K.$.* z.Y.Z.Z.Z.Z.Z.Z.Z.Z.Z.Z.Z.Z.Z.Z.G.B.~ - s M.K.Z.Z.Z.Z.Z.Z.Z.Z.Z.Z.Z.Z.Z.Z.K.M.1 K ",
"x.  u + # # # # # # # # # # # # # # # # + u L 3 + # # # # # # # # # # # # # # + # n L B # + # # # # # # # # # # # # # # + # l ( ",
"x.  8                                     9 I +                                 X b I V X                                 X x ) ",
"x.   .y.8.5.5.5.5.5.5.5.5.5.5.5.5.5.5.8.y.} k *.s.5.5.5.5.5.5.5.5.5.5.5.5.5.5.e.4.U z b ;.i.5.5.5.5.5.5.5.5.5.5.5.5.5.5.i.;.r R ",
"x.  y.MXiXeXeXeXeXeXeXeXeXeXeXeXeXeXeXiXMX0.  K.ZXeXeXeXeXeXeXeXeXeXeXeXeXeXeXvX2X[ X y _.BXeXeXeXeXeXeXeXeXeXeXeXeXeXeXBX_., S ",
"x.  6.iX<X:X:X:X:X:X:X:X:X:X:X:X:X:X:X<XiX3.  S.lX:X:X:X:X:X:X:X:X:X:X:X:X:X:XqX}.' + u E.pX:X:X:X:X:X:X:X:X:X:X:X:X:X:XpXE.< F ",
"x.  5.eX:X#X#X#X#X#X#X#X#X#X#X#X#X#X#X:XeX2.  Z.dX#X#X#X#X#X#X#X#X#X#X#X#X#X#X5X[.' + u U.rX#X#X#X#X#X#X#X#X#X#X#X#X#X#XrXU.< F ",
"x.  5.eX:X#X#X#X#X#X#X#X#X#X#X#X#X#X#X:XeX2.  Z.dX#X#X#X#X#X#X#X#X#X#X#X#X#X#X5X[.' + u U.rX#X#X#X#X#X#X#X#X#X#X#X#X#X#XrXU.< F ",
"x.  5.eX:X#X#X#X#X#X#X#X#X#X#X#X#X#X#X:XeX2.  Z.dX#X#X#X#X#X#X#X#X#X#X#X#X#X#X5X[.' + u U.rX#X#X#X#X#X#X#X#X#X#X#X#X#X#XrXU.< F ",
"x.  5.eX:X#X#X#X#X#X#X#X#X#X#X#X#X#X#X:XeX2.  Z.dX#X#X#X#X#X#X#X#X#X#X#X#X#X#X5X[.' + u U.rX#X#X#X#X#X#X#X#X#X#X#X#X#X#XrXU.< F ",
"x.  5.eX:X#X#X#X#X#X#X#X#X#X#X#X#X#X#X:XeX2.  Z.dX#X#X#X#X#X#X#X#X#X#X#X#X#X#X5X[.' + u U.rX#X#X#X#X#X#X#X#X#X#X#X#X#X#XrXU.< F ",
"x.  5.eX:X#X#X#X#X#X#X#X#X#X#X#X#X#X#X:XeX2.  Z.dX#X#X#X#X#X#X#X#X#X#X#X#X#X#X5X[.' + u U.rX#X#X#X#X#X#X#X#X#X#X#X#X#X#XrXU.< F ",
"x.  5.eX:X#X#X#X#X#X#X#X#X#X#X#X#X#X#X:XeX2.  Z.dX#X#X#X#X#X#X#X#X#X#X#X#X#X#X5X[.' + u U.rX#X#X#X#X#X#X#X#X#X#X#X#X#X#XrXU.< F ",
"x.  5.eX:X#X#X#X#X#X#X#X#X#X#X#X#X#X#X:XeX2.  Z.dX#X#X#X#X#X#X#X#X#X#X#X#X#X#X5X[.' + u U.rX#X#X#X#X#X#X#X#X#X#X#X#X#X#XrXU.< F ",
"x.  5.eX:X#X#X#X#X#X#X#X#X#X#X#X#X#X#X:XeX2.  Z.dX#X#X#X#X#X#X#X#X#X#X#X#X#X#X5X[.' + u U.rX#X#X#X#X#X#X#X#X#X#X#X#X#X#XrXU.< F ",
"x.  5.eX:X#X#X#X#X#X#X#X#X#X#X#X#X#X#X:XeX2.  Z.dX#X#X#X#X#X#X#X#X#X#X#X#X#X#X5X[.' + u U.rX#X#X#X#X#X#X#X#X#X#X#X#X#X#XrXU.< F ",
"x.  5.eX:X#X#X#X#X#X#X#X#X#X#X#X#X#X#X:XeX2.  Z.dX#X#X#X#X#X#X#X#X#X#X#X#X#X#X5X[.' + u U.rX#X#X#X#X#X#X#X#X#X#X#X#X#X#XrXU.< F ",
"x.  5.eX:X#X#X#X#X#X#X#X#X#X#X#X#X#X#X:XeX2.  Z.dX#X#X#X#X#X#X#X#X#X#X#X#X#X#X5X[.' + u U.rX#X#X#X#X#X#X#X#X#X#X#X#X#X#XrXU.< F ",
"x.  9.uX:X#X#X#X#X#X#X#X#X#X#X#X#X#X#X:XuX4.  D.hX@X#X#X#X#X#X#X#X#X#X#X#X#X#X5X[.' + u U.rX#X#X#X#X#X#X#X#X#X#X#X#X#X@XtXW.< F ",
"x.  p.nX,X:X:X:X:X:X:X:X:X:X:X:X:X:X:X,XnXq.  P.mX$X:X:X:X:X:X:X:X:X:X:X:X:X:XqX}.' + u E.pX:X:X:X:X:X:X:X:X:X:X:X:X:X&XkX'.< S ",
"x.  Q k.nXyXeXeXeXeXeXeXeXeXeXeXeXeXyXnXk.N t O.L.CXeXeXeXeXeXeXeXeXeXeXeXeXeXvX2X[ X y _.BXeXeXeXeXeXeXeXeXeXeXeXeXeXMX(.#.q R ",
"x.  $ 6 s.0.5.5.5.5.5.5.5.5.5.5.5.5.0.s.6 % L   ..g.5.5.5.5.5.5.5.5.5.5.5.5.5.e.4.U z b ;.i.5.5.5.5.5.5.5.5.5.5.5.5.5.f.o.  h ) ",
"c.  P 9   X X X X X X X X X X X X X X   9 P M P #   X X X X X X X X X X X X X   X b P B +   X X X X X X X X X X X X X   + P c T ",
",.e M M M M M M M M M M M M M M M M M M M M M M M M M M M M M M M M M M M M M M M M M M M M M M M M M M M M M M M M M M M M f | "
};
