/* XPM */
static char *result[] = {
/* columns rows colors chars-per-pixel */
"64 64 143 2 ",
"   c black",
".  c #000001",
"X  c #000101",
"o  c #000102",
"O  c #000202",
"+  c #000303",
"@  c #000403",
"#  c #000404",
"$  c #000504",
"%  c #000605",
"&  c #000705",
"*  c #020604",
"=  c #030605",
"-  c #020705",
";  c #030705",
":  c #040705",
">  c #050705",
",  c #060706",
"<  c #070706",
"1  c #050807",
"2  c #070807",
"3  c #080806",
"4  c #090907",
"5  c #0A0907",
"6  c #0B0907",
"7  c #0C0907",
"8  c #0D0907",
"9  c #0E0907",
"0  c #0D0A07",
"q  c #0E0A07",
"w  c #0D0A08",
"e  c #0E0A08",
"r  c #0F0A08",
"t  c #110A08",
"y  c #160B08",
"u  c #170B08",
"i  c #180B08",
"p  c #190C08",
"a  c #240B08",
"s  c #210D0A",
"d  c #270E0B",
"f  c #2B0D0A",
"g  c #33110C",
"h  c #34110C",
"j  c #35110C",
"k  c #3B120D",
"l  c #3C120D",
"z  c #41130E",
"x  c #44140E",
"c  c #46140F",
"v  c #48140F",
"b  c #49140F",
"n  c #4A150F",
"m  c #4B150F",
"M  c #4E160F",
"N  c #56130E",
"B  c #56150F",
"V  c #501610",
"C  c #541710",
"Z  c #551710",
"A  c #561610",
"S  c #5A1811",
"D  c #5B1811",
"F  c #5D1811",
"G  c #5E1811",
"H  c #5F1811",
"J  c #621710",
"K  c #661A12",
"L  c #661A13",
"P  c #671A13",
"I  c #6B1B13",
"U  c #6C1B13",
"Y  c #711C14",
"T  c #771D15",
"R  c #781D15",
"E  c #7D1E15",
"W  c #7F1F16",
"Q  c #832016",
"!  c #852017",
"~  c #872016",
"^  c #952318",
"/  c #A0251A",
"(  c #A9261B",
")  c #AB261B",
"_  c #AC271B",
"`  c #B6291D",
"'  c #BA291D",
"]  c #BB2A1D",
"[  c #C12A1E",
"{  c #C02B1E",
"}  c #C22B1E",
"|  c #C72B1F",
" . c #C32C1E",
".. c #C82C1F",
"X. c #CE2D20",
"o. c #D12E20",
"O. c #D42F20",
"+. c #D42F21",
"@. c #D72F21",
"#. c #D92F21",
"$. c #DB3021",
"%. c #DB3022",
"&. c #DC3122",
"*. c #DE3022",
"=. c #E13122",
"-. c #E23122",
";. c #E33122",
":. c #E43122",
">. c #E53222",
",. c #E63223",
"<. c #E83223",
"1. c #E93223",
"2. c #ED3323",
"3. c #ED3324",
"4. c #EE3324",
"5. c #F23424",
"6. c #F33424",
"7. c #F43424",
"8. c #F53424",
"9. c #F63524",
"0. c #F63525",
"q. c #F73525",
"w. c #F93525",
"e. c #FB3525",
"r. c #FA3625",
"t. c #FB3625",
"y. c #FC3525",
"u. c #FC3625",
"i. c #FD3626",
"p. c #FF3726",
"a. c #FF3826",
"s. c #FF3827",
"d. c #FF3927",
"f. c #FF3A27",
"g. c #FF3928",
"h. c #FF3A28",
"j. c #FF3B28",
"k. c #FF3B29",
"l. c #FF3C29",
"z. c #FF3D2A",
"x. c #FF3E2B",
"c. c #FF3F2B",
"v. c #FF402C",
/* pixels */
"a / X.A D F F F F F F F F F F B E >.P 3 : $ ( p.-.-.-.-.-.-.-.-.-.-.-.-.-.-.5.O.Z 1 : b @.^ B F F F F F F F F F F F N ` ..J c < ",
"I k.1.a.p.p.p.p.p.p.p.p.p.p.p.a.r.9.5.p $ $ ( p.-.-.-.-.-.-.-.-.-.-.-.-.-.-.*.e.0.9 $ &.a.8.s.p.p.p.p.p.p.p.p.p.p.p.s.2.<.c.[ # ",
"G p.:.:.:.:.:.:.:.:.:.:.:.:.:.:.:.6.#.y $ $ ( p.-.-.-.-.-.-.-.-.-.-.-.-.-.-.-.6.#.7 $ } u.;.:.:.:.:.:.:.:.:.:.:.:.:.:.;.-.p.) $ ",
"F p.:.-.-.-.-.-.-.-.-.-.-.-.-.-.-.6.@.y $ $ ( p.-.-.-.-.-.-.-.-.-.-.-.-.-.-.-.6.@.7 $ { t.-.-.-.-.-.-.-.-.-.-.-.-.-.-.-.-.p.( $ ",
"F p.:.-.-.-.-.-.-.-.-.-.-.-.-.-.-.6.@.y $ $ ( p.-.-.-.-.-.-.-.-.-.-.-.-.-.-.-.6.@.7 $ { t.-.-.-.-.-.-.-.-.-.-.-.-.-.-.-.-.p.( $ ",
"F p.:.-.-.-.-.-.-.-.-.-.-.-.-.-.-.6.@.y $ $ ( p.-.-.-.-.-.-.-.-.-.-.-.-.-.-.-.6.@.7 $ { t.-.-.-.-.-.-.-.-.-.-.-.-.-.-.-.-.p.( $ ",
"F p.:.-.-.-.-.-.-.-.-.-.-.-.-.-.-.6.@.y $ $ ( p.-.-.-.-.-.-.-.-.-.-.-.-.-.-.-.6.@.7 $ { t.-.-.-.-.-.-.-.-.-.-.-.-.-.-.-.-.p.( $ ",
"F p.:.-.-.-.-.-.-.-.-.-.-.-.-.-.-.6.@.y $ $ ( p.-.-.-.-.-.-.-.-.-.-.-.-.-.-.-.6.@.7 $ { t.-.-.-.-.-.-.-.-.-.-.-.-.-.-.-.-.p.( $ ",
"F p.:.-.-.-.-.-.-.-.-.-.-.-.-.-.-.6.@.y $ $ ( p.-.-.-.-.-.-.-.-.-.-.-.-.-.-.-.6.@.7 $ { t.-.-.-.-.-.-.-.-.-.-.-.-.-.-.-.-.p.( $ ",
"F p.:.-.-.-.-.-.-.-.-.-.-.-.-.-.-.6.@.y $ $ ( p.-.-.-.-.-.-.-.-.-.-.-.-.-.-.-.6.@.7 $ { t.-.-.-.-.-.-.-.-.-.-.-.-.-.-.-.-.p.( $ ",
"F p.:.-.-.-.-.-.-.-.-.-.-.-.-.-.-.6.@.y $ $ ( p.-.-.-.-.-.-.-.-.-.-.-.-.-.-.-.6.@.7 $ { t.-.-.-.-.-.-.-.-.-.-.-.-.-.-.-.-.p.( $ ",
"F p.:.-.-.-.-.-.-.-.-.-.-.-.-.-.-.6.@.y $ $ ( p.-.-.-.-.-.-.-.-.-.-.-.-.-.-.-.6.@.7 $ { t.-.-.-.-.-.-.-.-.-.-.-.-.-.-.-.-.p.( $ ",
"F p.:.-.-.-.-.-.-.-.-.-.-.-.-.-.-.6.@.y $ $ ( p.-.-.-.-.-.-.-.-.-.-.-.-.-.-.-.6.@.7 $ { t.-.-.-.-.-.-.-.-.-.-.-.-.-.-.-.-.p.( $ ",
"F p.:.-.-.-.-.-.-.-.-.-.-.-.-.-.-.6.@.y $ $ ( p.-.-.-.-.-.-.-.-.-.-.-.-.-.-.-.6.@.7 $ { t.-.-.-.-.-.-.-.-.-.-.-.-.-.-.-.-.p.( $ ",
"F p.:.-.-.-.-.-.-.-.-.-.-.-.-.-.-.6.@.y $ $ ( p.-.-.-.-.-.-.-.-.-.-.-.-.-.-.-.6.@.7 $ { t.-.-.-.-.-.-.-.-.-.-.-.-.-.-.-.-.p.( $ ",
"F p.:.-.-.-.-.-.-.-.-.-.-.-.-.-.-.6.@.y $ $ ( p.-.-.-.-.-.-.-.-.-.-.-.-.-.-.-.6.@.7 $ { t.-.-.-.-.-.-.-.-.-.-.-.-.-.-.-.-.p.( $ ",
"F p.:.-.-.-.-.-.-.-.-.-.-.-.-.-.-.6.@.y $ $ ( p.-.-.-.-.-.-.-.-.-.-.-.-.-.-.-.6.@.7 $ { t.-.-.-.-.-.-.-.-.-.-.-.-.-.-.-.-.p.( $ ",
"F p.:.-.-.-.-.-.-.-.-.-.-.-.-.-.-.6.@.y $ $ ( p.-.-.-.-.-.-.-.-.-.-.-.-.-.-.-.6.@.7 $ { t.-.-.-.-.-.-.-.-.-.-.-.-.-.-.-.-.p.( $ ",
"U v.d.d.d.d.d.d.d.d.d.d.d.d.d.d.d.l.i.i @ @ | v.d.d.d.d.d.d.d.d.d.d.d.d.d.d.d.l.i.7 @ -.x.d.d.d.d.d.d.d.d.d.d.d.d.d.d.d.d.v.| @ ",
"h ! R T T T T T T T T T T T T T T W Y t , , S ! T T T T T T T T T T T T T T T W Y 7 , L Q T T T T T T T T T T T T T T T T ! S , ",
"#                                     2 r r                                     O 0 e                                       # e ",
"s m x x x x x x x x x x x x x x x v z q 3 3 j m x x x x x x x x x x x x x x M g + , 5 k n x x x x x x x x x x x x x x x V d + 6 ",
"K l.y.w.w.w.w.w.w.w.w.w.w.w.w.w.w.d.3.u $ $ ' l.w.w.w.w.w.w.w.w.w.w.w.w.w.w.f.=.l * ; +.j.w.w.w.w.w.w.w.w.w.w.w.w.w.w.w.h.o.f > ",
"H s.<.,.,.,.,.,.,.,.,.,.,.,.,.,.,.q.$.y $ $ _ s.,.,.,.,.,.,.,.,.,.,.,.,.,.,.:.u.4.8 $  .p.,.,.,.,.,.,.,.,.,.,.,.,.,.,.,.;.g.] $ ",
"F p.:.-.-.-.-.-.-.-.-.-.-.-.-.-.-.6.@.y $ $ ( p.-.-.-.-.-.-.-.-.-.-.-.-.-.-.-.7.%.7 $ { t.-.-.-.-.-.-.-.-.-.-.-.-.-.-.-.=.p._ $ ",
"F p.:.-.-.-.-.-.-.-.-.-.-.-.-.-.-.6.@.y $ $ ( p.-.-.-.-.-.-.-.-.-.-.-.-.-.-.-.6.@.7 $ { t.-.-.-.-.-.-.-.-.-.-.-.-.-.-.-.-.p.( $ ",
"F p.:.-.-.-.-.-.-.-.-.-.-.-.-.-.-.6.@.y $ $ ( p.-.-.-.-.-.-.-.-.-.-.-.-.-.-.-.6.@.7 $ { t.-.-.-.-.-.-.-.-.-.-.-.-.-.-.-.-.p.( $ ",
"F p.:.-.-.-.-.-.-.-.-.-.-.-.-.-.-.6.@.y $ $ ( p.-.-.-.-.-.-.-.-.-.-.-.-.-.-.-.6.@.7 $ { t.-.-.-.-.-.-.-.-.-.-.-.-.-.-.-.-.p.( $ ",
"F p.:.-.-.-.-.-.-.-.-.-.-.-.-.-.-.6.@.y $ $ ( p.-.-.-.-.-.-.-.-.-.-.-.-.-.-.-.6.@.7 $ { t.-.-.-.-.-.-.-.-.-.-.-.-.-.-.-.-.p.( $ ",
"F p.:.-.-.-.-.-.-.-.-.-.-.-.-.-.-.6.@.y $ $ ( p.-.-.-.-.-.-.-.-.-.-.-.-.-.-.-.6.@.7 $ { t.-.-.-.-.-.-.-.-.-.-.-.-.-.-.-.-.p.( $ ",
"F p.:.-.-.-.-.-.-.-.-.-.-.-.-.-.-.6.@.y $ $ ( p.-.-.-.-.-.-.-.-.-.-.-.-.-.-.-.6.@.7 $ { t.-.-.-.-.-.-.-.-.-.-.-.-.-.-.-.-.p.( $ ",
"F p.:.-.-.-.-.-.-.-.-.-.-.-.-.-.-.6.@.y $ $ ( p.-.-.-.-.-.-.-.-.-.-.-.-.-.-.-.6.@.7 $ { t.-.-.-.-.-.-.-.-.-.-.-.-.-.-.-.-.p.( $ ",
"F p.:.-.-.-.-.-.-.-.-.-.-.-.-.-.-.6.@.y $ $ ( p.-.-.-.-.-.-.-.-.-.-.-.-.-.-.-.6.@.7 $ { t.-.-.-.-.-.-.-.-.-.-.-.-.-.-.-.-.p.( $ ",
"F p.:.-.-.-.-.-.-.-.-.-.-.-.-.-.-.6.@.y $ $ ( p.-.-.-.-.-.-.-.-.-.-.-.-.-.-.-.6.@.7 $ { t.-.-.-.-.-.-.-.-.-.-.-.-.-.-.-.-.p.( $ ",
"F p.:.-.-.-.-.-.-.-.-.-.-.-.-.-.-.6.@.y $ $ ( p.-.-.-.-.-.-.-.-.-.-.-.-.-.-.-.6.@.7 $ { t.-.-.-.-.-.-.-.-.-.-.-.-.-.-.-.-.p.( $ ",
"F p.:.-.-.-.-.-.-.-.-.-.-.-.-.-.-.6.@.y $ $ ( p.-.-.-.-.-.-.-.-.-.-.-.-.-.-.-.6.@.7 $ { t.-.-.-.-.-.-.-.-.-.-.-.-.-.-.-.-.p.( $ ",
"F p.:.-.-.-.-.-.-.-.-.-.-.-.-.-.-.6.@.y $ $ ( p.-.-.-.-.-.-.-.-.-.-.-.-.-.-.-.6.@.7 $ { t.-.-.-.-.-.-.-.-.-.-.-.-.-.-.-.-.p.( $ ",
"F p.:.-.-.-.-.-.-.-.-.-.-.-.-.-.-.6.@.y $ $ ( p.-.-.-.-.-.-.-.-.-.-.-.-.-.-.-.6.@.7 $ { t.-.-.-.-.-.-.-.-.-.-.-.-.-.-.-.-.p.( $ ",
"F p.:.-.-.-.-.-.-.-.-.-.-.-.-.-.-.6.@.y $ $ ( p.-.-.-.-.-.-.-.-.-.-.-.-.-.-.-.6.@.7 $ { t.-.-.-.-.-.-.-.-.-.-.-.-.-.-.-.-.p.( $ ",
"U v.d.d.d.d.d.d.d.d.d.d.d.d.d.d.d.l.i.i @ @ | v.d.d.d.d.d.d.d.d.d.d.d.d.d.d.d.l.i.7 @ -.x.d.d.d.d.d.d.d.d.d.d.d.d.d.d.d.d.v.| @ ",
"h ! R T T T T T T T T T T T T T T W Y t , , S ! T T T T T T T T T T T T T T T W Y 7 , L Q T T T T T T T T T T T T T T T T ! S , ",
"% . o o o o o o o o o o o o o o o o O 4 w w @ . o o o o o o o o o o o o o o o o O 6 w + X o o o o o o o o o o o o o o o o . @ w ",
"& O + + + + + + + + + + + + + + + O + 4 0 0 # O + + + + + + + + + + + + + + + O + 6 0 @ O + + + + + + + + + + + + + + + + O # 0 ",
"s m x x x x x x x x x x x x x x x v z q 3 3 j m x x x x x x x x x x x x x x x v z 6 3 k n x x x x x x x x x x x x x x x x m j 3 ",
"K l.y.w.w.w.w.w.w.w.w.w.w.w.w.w.w.d.3.u $ $ ' l.w.w.w.w.w.w.w.w.w.w.w.w.w.w.w.d.3.7 $ +.j.w.w.w.w.w.w.w.w.w.w.w.w.w.w.w.w.l.' $ ",
"H s.<.,.,.,.,.,.,.,.,.,.,.,.,.,.,.q.$.y $ $ _ s.,.,.,.,.,.,.,.,.,.,.,.,.,.,.,.q.$.7 $  .p.,.,.,.,.,.,.,.,.,.,.,.,.,.,.,.,.s._ $ ",
"F p.:.-.-.-.-.-.-.-.-.-.-.-.-.-.-.6.@.y $ $ ( p.-.-.-.-.-.-.-.-.-.-.-.-.-.-.-.6.@.7 $ { t.-.-.-.-.-.-.-.-.-.-.-.-.-.-.-.-.p.( $ ",
"F p.:.-.-.-.-.-.-.-.-.-.-.-.-.-.-.6.@.y $ $ ( p.-.-.-.-.-.-.-.-.-.-.-.-.-.-.-.6.@.7 $ { t.-.-.-.-.-.-.-.-.-.-.-.-.-.-.-.-.p.( $ ",
"F p.:.-.-.-.-.-.-.-.-.-.-.-.-.-.-.6.@.y $ $ ( p.-.-.-.-.-.-.-.-.-.-.-.-.-.-.-.6.@.7 $ { t.-.-.-.-.-.-.-.-.-.-.-.-.-.-.-.-.p.( $ ",
"F p.:.-.-.-.-.-.-.-.-.-.-.-.-.-.-.6.@.y $ $ ( p.-.-.-.-.-.-.-.-.-.-.-.-.-.-.-.6.@.7 $ { t.-.-.-.-.-.-.-.-.-.-.-.-.-.-.-.-.p.( $ ",
"F p.:.-.-.-.-.-.-.-.-.-.-.-.-.-.-.6.@.y $ $ ( p.-.-.-.-.-.-.-.-.-.-.-.-.-.-.-.6.@.7 $ { t.-.-.-.-.-.-.-.-.-.-.-.-.-.-.-.-.p.( $ ",
"F p.:.-.-.-.-.-.-.-.-.-.-.-.-.-.-.6.@.y $ $ ( p.-.-.-.-.-.-.-.-.-.-.-.-.-.-.-.6.@.7 $ { t.-.-.-.-.-.-.-.-.-.-.-.-.-.-.-.-.p.( $ ",
"F p.:.-.-.-.-.-.-.-.-.-.-.-.-.-.-.6.@.y $ $ ( p.-.-.-.-.-.-.-.-.-.-.-.-.-.-.-.6.@.7 $ { t.-.-.-.-.-.-.-.-.-.-.-.-.-.-.-.-.p.( $ ",
"F p.:.-.-.-.-.-.-.-.-.-.-.-.-.-.-.6.@.y $ $ ( p.-.-.-.-.-.-.-.-.-.-.-.-.-.-.-.6.@.7 $ { t.-.-.-.-.-.-.-.-.-.-.-.-.-.-.-.-.p.( $ ",
"F p.:.-.-.-.-.-.-.-.-.-.-.-.-.-.-.6.@.y $ $ ( p.-.-.-.-.-.-.-.-.-.-.-.-.-.-.-.6.@.7 $ { t.-.-.-.-.-.-.-.-.-.-.-.-.-.-.-.-.p.( $ ",
"F p.:.-.-.-.-.-.-.-.-.-.-.-.-.-.-.6.@.y $ $ ( p.-.-.-.-.-.-.-.-.-.-.-.-.-.-.-.6.@.7 $ { t.-.-.-.-.-.-.-.-.-.-.-.-.-.-.-.-.p.( $ ",
"F p.:.-.-.-.-.-.-.-.-.-.-.-.-.-.-.6.@.y $ $ ( p.-.-.-.-.-.-.-.-.-.-.-.-.-.-.-.6.@.7 $ { t.-.-.-.-.-.-.-.-.-.-.-.-.-.-.-.-.p.( $ ",
"F p.:.-.-.-.-.-.-.-.-.-.-.-.-.-.-.6.@.y $ $ ( p.-.-.-.-.-.-.-.-.-.-.-.-.-.-.-.6.@.7 $ { t.-.-.-.-.-.-.-.-.-.-.-.-.-.-.-.-.p.( $ ",
"F p.:.-.-.-.-.-.-.-.-.-.-.-.-.-.-.6.@.y $ $ ( p.-.-.-.-.-.-.-.-.-.-.-.-.-.-.-.6.@.7 $ { t.-.-.-.-.-.-.-.-.-.-.-.-.-.-.-.-.p.( $ ",
"F p.:.-.-.-.-.-.-.-.-.-.-.-.-.-.-.6.@.y $ $ ( p.-.-.-.-.-.-.-.-.-.-.-.-.-.-.-.6.#.7 $ { t.-.-.-.-.-.-.-.-.-.-.-.-.-.-.-.-.p.( $ ",
"F p.:.-.-.-.-.-.-.-.-.-.-.-.-.-.-.6.@.y $ $ ( p.-.-.-.-.-.-.-.-.-.-.-.-.-.-.*.e.0.q $ { t.-.-.-.-.-.-.-.-.-.-.-.-.-.-.-.-.p.( $ ",
"U v.d.d.d.d.d.d.d.d.d.d.d.d.d.d.d.l.i.i @ @ | v.d.d.d.d.d.d.d.d.d.d.d.d.d.d.z.0.C = - -.x.d.d.d.d.d.d.d.d.d.d.d.d.d.d.d.d.v.| @ ",
"h ! R T T T T T T T T T T T T T T W Y t , , S ! T T T T T T T T T T T T T T ~ F O = 4 L Q T T T T T T T T T T T T T T T T ! S , ",
"% . o o o o o o o o o o o o o o o o O 4 w w @ . o o o o o o o o o o o o o o X + 7 w 7 + X o o o o o o o o o o o o o o o o . @ w "
};
