/* XPM */
static char *result[] = {
/* columns rows colors chars-per-pixel */
"64 64 100 2 ",
"   c black",
".  c #0D0300",
"X  c #0D0400",
"o  c #0C0500",
"O  c #0D0500",
"+  c #0C0600",
"@  c #0C0700",
"#  c #0C0502",
"$  c #0C0602",
"%  c #0C0702",
"&  c #0C0603",
"*  c #0C0703",
"=  c #0C0704",
"-  c #0B0800",
";  c #0B0801",
":  c #0B0802",
">  c #0B0803",
",  c #0C0800",
"<  c #0B0804",
"1  c #0B0805",
"2  c #0B0905",
"3  c #0B0906",
"4  c #0B0907",
"5  c #0C0804",
"6  c #0C0805",
"7  c #0B0908",
"8  c #0B0A08",
"9  c #0B090A",
"0  c #0B0A0C",
"q  c #0B0A0D",
"w  c #0A0A0E",
"e  c #0A0A11",
"r  c #0A0A12",
"t  c #0A0A13",
"y  c #0A0B15",
"u  c #0A0D21",
"i  c #090D27",
"p  c #090E2D",
"a  c #090F2D",
"s  c #081038",
"d  c #08103B",
"f  c #08103C",
"g  c #08113C",
"h  c #08113F",
"j  c #2A2927",
"k  c #071144",
"l  c #071145",
"z  c #081141",
"x  c #081143",
"c  c #071450",
"v  c #061661",
"b  c #061765",
"n  c #06176A",
"m  c #06186C",
"M  c #061871",
"N  c #051872",
"B  c #061974",
"V  c #061979",
"C  c #051A7B",
"Z  c #041A81",
"A  c #041B83",
"S  c #041C8A",
"D  c #041C8E",
"F  c #041D91",
"G  c #041D94",
"H  c #031E98",
"J  c #031E9B",
"K  c #031FA3",
"L  c #0320A7",
"P  c #0220A8",
"I  c #0221AF",
"U  c #0321AF",
"Y  c #0222B1",
"T  c #0122B3",
"R  c #0124C2",
"E  c #0125C6",
"W  c #0025CC",
"Q  c #0026D0",
"!  c #0027D4",
"~  c #0027D6",
"^  c #0027DB",
"/  c #0028DF",
"(  c #0028E1",
")  c #0029E2",
"_  c #0029E5",
"`  c #0029E6",
"'  c #0029EB",
"]  c #002AEE",
"[  c #002AEF",
"{  c #002BEF",
"}  c #002AF1",
"|  c #002AF2",
" . c #002BF2",
".. c #002BF6",
"X. c #002BF9",
"o. c #002CFC",
"O. c #002CFF",
"+. c #002DFF",
"@. c #002EFF",
"#. c #002FFF",
/* pixels */
"4 4 4 2 2 2 2 2 2 2 2 2 2 2 2 2 2 2 2 3 4 4 4 2 2 2 2 2 2 2 2 2 2 2 2 2 2 2 2 2 3 4 4 4 2 2 2 2 2 2 2 2 2 2 2 2 2 2 2 2 3 4 4 4 ",
"4 8 - X O O O O O O O O O O O O O O X + 7 8 - X O O O O O O O O O O O O O O O X + 7 7 3 o O O O O O O O O O O O O O O X + 7 7 4 ",
"4 * i D A Z Z Z Z Z Z Z Z Z Z Z Z Z G v * & i D A Z Z Z Z Z Z Z Z Z Z Z Z Z Z G v * * q C S Z Z Z Z Z Z Z Z Z Z Z Z Z G v * 2 4 ",
"4 X k +. .] ] ] ] ] ] ] ] ] ] ] ] ] @.Y o . k +. .] ] ] ] ] ] ] ] ] ] ] ] ] ] @.Y o o t ) O.] ] ] ] ] ] ] ] ] ] ] ] ] @.Y o : 4 ",
"4 O d ( Q W W W W W W W W W W W W W ' H + X d ( Q W W W W W W W W W W W W W W ' H + + e R ^ W W W W W W W W W W W W W ' H + > 4 ",
"4 O d ( Q W W W W W W W W W W W W W ' H + X d ( Q W W W W W W W W W W W W W W ' H + + e R ^ W W W W W W W W W W W W W ' H + > 4 ",
"4 O d ( Q W W W W W W W W W W W W W ' H + X d ( Q W W W W W W W W W W W W W W ' H + + e R ^ W W W W W W W W W W W W W ' H + > 4 ",
"4 O d ( Q W W W W W W W W W W W W W ' H + X d ( Q W W W W W W W W W W W W W W ' H + + e R ^ W W W W W W W W W W W W W ' H + > 4 ",
"4 O d ( Q W W W W W W W W W W W W W ' H + X d ( Q W W W W W W W W W W W W W W ' H + + e R ^ W W W W W W W W W W W W W ' H + > 4 ",
"4 O d ( Q W W W W W W W W W W W W W ' H + X d ( Q W W W W W W W W W W W W W W ' H + + e R ^ W W W W W W W W W W W W W ' H + > 4 ",
"4 O d ( Q W W W W W W W W W W W W W ' H + X d ( Q W W W W W W W W W W W W W W ' H + + e R ^ W W W W W W W W W W W W W ' H + > 4 ",
"4 O d ( Q W W W W W W W W W W W W W ' H + X d ( Q W W W W W W W W W W W W W W ' H + + e R ^ W W W W W W W W W W W W W ' H + > 4 ",
"4 O d ( Q W W W W W W W W W W W W W ' H + X d ( Q W W W W W W W W W W W W W W ' H + + e R ^ W W W W W W W W W W W W W ' H + > 4 ",
"4 O d ( Q W W W W W W W W W W W W W ' H + X d ( Q W W W W W W W W W W W W W W ' H + + e R ^ W W W W W W W W W W W W W ' H + > 4 ",
"4 O d ( Q W W W W W W W W W W W W W ' H + X d ( Q W W W W W W W W W W W W W W ' H + + e R ^ W W W W W W W W W W W W W ' H + > 4 ",
"4 O d ( Q W W W W W W W W W W W W W ' H + X d ( Q W W W W W W W W W W W W W W ' H + + e R ^ W W W W W W W W W W W W W ' H + > 4 ",
"4 O d ( Q W W W W W W W W W W W W W ' H + X d ( Q W W W W W W W W W W W W W W ' H + + e R ^ W W W W W W W W W W W W W ' H + > 4 ",
"4 O f _ ! Q Q Q Q Q Q Q Q Q Q Q Q Q [ J + X f _ ! Q Q Q Q Q Q Q Q Q Q Q Q Q Q [ J + + e E / Q Q Q Q Q Q Q Q Q Q Q Q Q [ J + > 4 ",
"4 O z X.` ( ( ( ( ( ( ( ( ( ( ( ( ( O.P + . z X.` ( ( ( ( ( ( ( ( ( ( ( ( ( ( O.P + + r ~ | ( ( ( ( ( ( ( ( ( ( ( ( ( O.P + > 4 ",
"4 6 y z g d d d d d d d d d d d d d x a 1 6 y z g d d d d d d d d d d d d d d x a 1 1 9 s h d d d d d d d d d d d d d x a 1 3 4 ",
"4 8 - X X O O O O O O O O O O O O O X + 7 8 - X X O O O O O O O O O O O O O O X + 7 7 2 O X O O O O O O O O O O O O O X + 7 7 4 ",
"4 8 , . X X X X X X X X X X X X X X . O 8 8 , . X X X X X X X X X X X X X X X . O 8 8 2 X . X X X X X X X X X X X X X . O 8 7 4 ",
"4 = u B m n n n n n n n n n n n n n V c 5 = u B m n n n n n n n n n n n n n n V c 5 5 0 b M n n n n n n n n n n n n n V c 5 2 4 ",
"4 X l @...} } } } } } } } } } } } } #.T o . l @...} } } } } } } } } } } } } } #.T o o t _ +.} } } } } } } } } } } } } #.T o : 4 ",
"4 O d ( Q W W W W W W W W W W W W W ' H + X d ( Q W W W W W W W W W W W W W W ' H + + e R ^ W W W W W W W W W W W W W ' H + > 4 ",
"4 O d ( Q W W W W W W W W W W W W W ' H + X d ( Q W W W W W W W W W W W W W W ' H + + e R ^ W W W W W W W W W W W W W ' H + > 4 ",
"4 O d ( Q W W W W W W W W W W W W W ' H + X d ( Q W W W W W W W W W W W W W W ' H + + e R ^ W W W W W W W W W W W W W ' H + > 4 ",
"4 O d ( Q W W W W W W W W W W W W W ' H + X d ( Q W W W W W W W W W W W W W W ' H + + e R ^ W W W W W W W W W W W W W ' H + > 4 ",
"4 O d ( Q W W W W W W W W W W W W W ' H + X d ( Q W W W W W W W W W W W W W W ' H + + e R ^ W W W W W W W W W W W W W ' H + > 4 ",
"4 O d ( Q W W W W W W W W W W W W W ' H + X d ( Q W W W W W W W W W W W W W W ' H + + e R ^ W W W W W W W W W W W W W ' H + > 4 ",
"4 O d ( Q W W W W W W W W W W W W W ' H + X d ( Q W W W W W W W W W W W W W W ' H + + e R ^ W W W W W W W W W W W W W ' H + > 4 ",
"4 O d ( Q W W W W W W W W W W W W W ' H + X d ( Q W W W W W W W W W W W W W W ' H + + e R ^ W W W W W W W W W W W W W ' H + > 4 ",
"4 O d ( Q W W W W W W W W W W W W W ' H + X d ( Q W W W W W W W W W W W W W W ' H + + e R ^ W W W W W W W W W W W W W ' H + > 4 ",
"4 O d ( Q W W W W W W W W W W W W W ' H + X d ( Q W W W W W W W W W W W W W W ' H + + e R ^ W W W W W W W W W W W W W ' H + > 4 ",
"4 O d ( Q W W W W W W W W W W W W W ' H + X d ( Q W W W W W W W W W W W W W W ' H + + e R ^ W W W W W W W W W W W W W ' H + > 4 ",
"4 O d ( Q W W W W W W W W W W W W W ' H + X d ( Q W W W W W W W W W W W W W W ' H + + e R ^ W W W W W W W W W W W W W ' H + > 4 ",
"4 O d ( Q W W W W W W W W W W W W W ' H + X d ( Q W W W W W W W W W W W W W W ' H + + e R ^ W W W W W W W W W W W W W ' H + > 4 ",
"4 O d ( Q W W W W W W W W W W W W W ' H + X d ( Q W W W W W W W W W W W W W W ' H + + e R ^ W W W W W W W W W W W W W ' H + > 4 ",
"4 O d ( Q W W W W W W W W W W W W W ' H + X d ( Q W W W W W W W W W W W W W W ' H + + e R ^ W W W W W W W W W W W W W ' H + > 4 ",
"4 X l @...} } } } } } } } } } } } } #.T o . l @...} } } } } } } } } } } } } } #.T o o t _ +.} } } } } } } } } } } } } #.T o : 4 ",
"4 = u B m n n n n n n n n n n n n n V c 5 = u B m n n n n n n n n n n n n n n V c 5 5 0 b M n n n n n n n n n n n n n V c 5 2 4 ",
"4 8 , . X X X X X X X X X X X X X X . O 8 8 , . X X X X X X X X X X X X X X X . O 8 8 2 X . X X X X X X X X X X X X X . O 8 7 4 ",
"4 8 - X X O O O O O O O O O O O O O X + 7 8 - X X O O O O O O O O O O O O O O X + 7 7 2 O X O O O O O O O O O O O O O X + 7 7 4 ",
"4 6 y z g d d d d d d d d d d d d d x a 1 6 y z g d d d d d d d d d d d d d d x a 1 1 9 s h d d d d d d d d d d d d d x a 1 3 4 ",
"4 O z X.` ( ( ( ( ( ( ( ( ( ( ( ( ( O.P + . z X.` ( ( ( ( ( ( ( ( ( ( ( ( ( ( O.P + + r ~ | ( ( ( ( ( ( ( ( ( ( ( ( ( O.P + > 4 ",
"4 O f _ ! Q Q Q Q Q Q Q Q Q Q Q Q Q [ J + X f _ ! Q Q Q Q Q Q Q Q Q Q Q Q Q Q [ J + + e E / Q Q Q Q Q Q Q Q Q Q Q Q Q [ J + > 4 ",
"4 O d ( Q W W W W W W W W W W W W W ' H + X d ( Q W W W W W W W W W W W W W W ' H + + e R ^ W W W W W W W W W W W W W ' H + > 4 ",
"4 O d ( Q W W W W W W W W W W W W W ' H + X d ( Q W W W W W W W W W W W W W W ' H + + e R ^ W W W W W W W W W W W W W ' H + > 4 ",
"4 O d ( Q W W W W W W W W W W W W W ' H + X d ( Q W W W W W W W W W W W W W W ' H + + e R ^ W W W W W W W W W W W W W ' H + > 4 ",
"4 O d ( Q W W W W W W W W W W W W W ' H + X d ( Q W W W W W W W W W W W W W W ' H + + e R ^ W W W W W W W W W W W W W ' H + > 4 ",
"4 O d ( Q W W W W W W W W W W W W W ' H + X d ( Q W W W W W W W W W W W W W W ' H + + e R ^ W W W W W W W W W W W W W ' H + > 4 ",
"4 O d ( Q W W W W W W W W W W W W W ' H + X d ( Q W W W W W W W W W W W W W W ' H + + e R ^ W W W W W W W W W W W W W ' H + > 4 ",
"4 O d ( Q W W W W W W W W W W W W W ' H + X d ( Q W W W W W W W W W W W W W W ' H + + e R ^ W W W W W W W W W W W W W ' H + > 4 ",
"4 O d ( Q W W W W W W W W W W W W W ' H + X d ( Q W W W W W W W W W W W W W W ' H + + e R ^ W W W W W W W W W W W W W ' H + > 4 ",
"4 O d ( Q W W W W W W W W W W W W W ' H + X d ( Q W W W W W W W W W W W W W W ' H + + e R ^ W W W W W W W W W W W W W ' H + > 4 ",
"4 O d ( Q W W W W W W W W W W W W W ' H + X d ( Q W W W W W W W W W W W W W W ' H + + e R ^ W W W W W W W W W W W W W ' H + > 4 ",
"4 O d ( Q W W W W W W W W W W W W W ' H + X d ( Q W W W W W W W W W W W W W W ' H + + e R ^ W W W W W W W W W W W W W ' H + > 4 ",
"4 O d ( Q W W W W W W W W W W W W W ' H + X d ( Q W W W W W W W W W W W W W W ' H + + e R ^ W W W W W W W W W W W W W ' H + > 4 ",
"4 O d ( Q W W W W W W W W W W W W W ' H + X d ( Q W W W W W W W W W W W W W W ' H + + e R ^ W W W W W W W W W W W W W ' H + > 4 ",
"4 X x +.{ ' ' ' ' ' ' ' ' ' ' ' ' ' @.I + . x +.{ ' ' ' ' ' ' ' ' ' ' ' ' ' ' @.I + + t / o.' ' ' ' ' ' ' ' ' ' ' ' ' @.I + : 4 ",
"4 $ p L J H H H H H H H H H H H H H U N % # p L J H H H H H H H H H H H H H H U N % % w F K H H H H H H H H H H H H H U N % < 4 ",
"4 7 ; + + + + + + + + + + + + + + + + @ 7 8 ; + + + + + + + + + + + + + + + + + @ 7 7 3 + + + + + + + + + + + + + + + + @ 7 4 4 ",
"                                                                                                                                ",
"j j j j j j j j j j j j j j j j j j j j j j j j j j j j j j j j j j j j j j j j j j j j j j j j j j j j j j j j j j j j j j j j "
};
