/* XPM */
static char *result[] = {
/* columns rows colors chars-per-pixel */
"64 64 129 2 ",
"   c #0A0006",
".  c #0A0106",
"X  c #0A0206",
"o  c #0A0306",
"O  c #0A0207",
"+  c #0A0307",
"@  c #0A0407",
"#  c #0A0507",
"$  c #0B0507",
"%  c #0A0607",
"&  c #0B0607",
"*  c #0B0707",
"=  c #0B0807",
"-  c #0B0907",
";  c #0B0A07",
":  c #0B0B07",
">  c #0B0C07",
",  c #0C0C07",
"<  c #0C0D07",
"1  c #0C0E07",
"2  c #0C0F07",
"3  c #0C0E08",
"4  c #0C0F08",
"5  c #0C1007",
"6  c #0C1008",
"7  c #0D1008",
"8  c #0C1108",
"9  c #0D1108",
"0  c #0C1208",
"q  c #0D1208",
"w  c #0D1308",
"e  c #0D1408",
"r  c #0D1508",
"t  c #12310A",
"y  c #13350A",
"u  c #153D0B",
"i  c #15410B",
"p  c #18540C",
"a  c #19570C",
"s  c #19570D",
"d  c #1A590D",
"f  c #195A0C",
"g  c #195A0D",
"h  c #1A5C0D",
"j  c #1A5D0D",
"k  c #1A5F0D",
"l  c #1B5F0D",
"z  c #1A600D",
"x  c #1A610D",
"c  c #1B620D",
"v  c #1A610E",
"b  c #1B620E",
"n  c #1B650D",
"m  c #1B650E",
"M  c #1C650E",
"N  c #1C670E",
"B  c #1B680E",
"V  c #1C690D",
"C  c #1C690E",
"Z  c #1C6A0E",
"A  c #1C6B0E",
"S  c #1D6B0E",
"D  c #1D6E0E",
"F  c #1D6F0E",
"G  c #1D6E0F",
"H  c #1D700E",
"J  c #1D710F",
"K  c #1E730F",
"L  c #1E740F",
"P  c #1E760E",
"I  c #1E770E",
"U  c #1E760F",
"Y  c #1F760F",
"T  c #1E770F",
"R  c #1F770F",
"E  c #1E780F",
"W  c #1F780F",
"Q  c #1F7A0F",
"!  c #1F7B0F",
"~  c #1F7C0F",
"^  c #1F7B10",
"/  c #1F7C10",
"(  c #1F7E10",
")  c #207D0F",
"_  c #207F0F",
"`  c #207E10",
"'  c #207F10",
"]  c #217F10",
"[  c #21860F",
"{  c #208010",
"}  c #208210",
"|  c #218210",
" . c #218310",
".. c #218410",
"X. c #218510",
"o. c #218610",
"O. c #218710",
"+. c #228610",
"@. c #228710",
"#. c #218910",
"$. c #218911",
"%. c #228810",
"&. c #218A11",
"*. c #218B11",
"=. c #228A10",
"-. c #228B10",
";. c #228B11",
":. c #228D10",
">. c #228C11",
",. c #228E11",
"<. c #238E11",
"1. c #239211",
"2. c #239311",
"3. c #249611",
"4. c #259E12",
"5. c #269F12",
"6. c #26A012",
"7. c #26A112",
"8. c #27A612",
"9. c #27A712",
"0. c #27A713",
"q. c #27A813",
"w. c #27A913",
"e. c #28A813",
"r. c #28A913",
"t. c #28AA13",
"y. c #28AB13",
"u. c #28AC13",
"i. c #28AD13",
/* pixels */
"- - 6 w q q q q q q q q q q q q q q q e r ; - 6 w q q q q q q q q q q q q q q q w 8 ; = - 5 w q q q q q q q q q q q q q q w 8 ; ",
"% = b @._ _ _ _ _ _ _ _ _ _ _ _ _ _ _ X.J 4 # M @._ _ _ _ _ _ _ _ _ _ _ _ _ _ _ X.G 6 X * k %._ _ _ _ _ _ _ _ _ _ _ _ _ _ +.S 9 ",
"# = ^ r.5.5.5.5.5.5.5.5.5.5.5.5.5.5.8.:.t $ = ` r.5.5.5.5.5.5.5.5.5.5.5.5.5.5.5.0.&.0   * P y.5.5.5.5.5.5.5.5.5.5.5.5.5.5.e.o.w ",
"# = L 6.3.3.3.3.3.3.3.3.3.3.3.3.3.3.6.W o   ; R 6.3.3.3.3.3.3.3.3.3.3.3.3.3.3.3.4.} 8 . * H 7.3.3.3.3.3.3.3.3.3.3.3.3.3.3.5._ q ",
"# = L 6.3.3.3.3.3.3.3.3.3.3.3.3.3.3.5.! , . ; R 6.3.3.3.3.3.3.3.3.3.3.3.3.3.3.3.4.} 8 . * H 7.3.3.3.3.3.3.3.3.3.3.3.3.3.3.5._ q ",
"# = L 6.3.3.3.3.3.3.3.3.3.3.3.3.3.3.5.! , . ; R 6.3.3.3.3.3.3.3.3.3.3.3.3.3.3.3.4.} 8 . * H 7.3.3.3.3.3.3.3.3.3.3.3.3.3.3.5._ q ",
"# = L 6.3.3.3.3.3.3.3.3.3.3.3.3.3.3.5.! , . ; R 6.3.3.3.3.3.3.3.3.3.3.3.3.3.3.3.4.} 8 . * H 7.3.3.3.3.3.3.3.3.3.3.3.3.3.3.5._ q ",
"# = L 6.3.3.3.3.3.3.3.3.3.3.3.3.3.3.5.! , . ; R 6.3.3.3.3.3.3.3.3.3.3.3.3.3.3.3.4.} 8 . * H 7.3.3.3.3.3.3.3.3.3.3.3.3.3.3.5._ q ",
"# = L 6.3.3.3.3.3.3.3.3.3.3.3.3.3.3.5.! , . ; R 6.3.3.3.3.3.3.3.3.3.3.3.3.3.3.3.4.} 8 . * H 7.3.3.3.3.3.3.3.3.3.3.3.3.3.3.5._ q ",
"# = L 6.3.3.3.3.3.3.3.3.3.3.3.3.3.3.5.! , . ; R 6.3.3.3.3.3.3.3.3.3.3.3.3.3.3.3.4.} 8 . * H 7.3.3.3.3.3.3.3.3.3.3.3.3.3.3.5._ q ",
"# = L 6.3.3.3.3.3.3.3.3.3.3.3.3.3.3.5.! , . ; R 6.3.3.3.3.3.3.3.3.3.3.3.3.3.3.3.4.} 8 . * H 7.3.3.3.3.3.3.3.3.3.3.3.3.3.3.5._ q ",
"# = L 6.3.3.3.3.3.3.3.3.3.3.3.3.3.3.5.! , . ; R 6.3.3.3.3.3.3.3.3.3.3.3.3.3.3.3.4.} 8 . * H 7.3.3.3.3.3.3.3.3.3.3.3.3.3.3.5._ q ",
"# = L 6.3.3.3.3.3.3.3.3.3.3.3.3.3.3.5.! , . ; R 6.3.3.3.3.3.3.3.3.3.3.3.3.3.3.3.4.} 8 . * H 7.3.3.3.3.3.3.3.3.3.3.3.3.3.3.5._ q ",
"# = L 6.3.3.3.3.3.3.3.3.3.3.3.3.3.3.5.! , . ; R 6.3.3.3.3.3.3.3.3.3.3.3.3.3.3.3.4.} 8 . * H 7.3.3.3.3.3.3.3.3.3.3.3.3.3.3.5._ q ",
"# = L 6.3.3.3.3.3.3.3.3.3.3.3.3.3.3.5.! , . ; R 6.3.3.3.3.3.3.3.3.3.3.3.3.3.3.3.4.} 8 . * H 7.3.3.3.3.3.3.3.3.3.3.3.3.3.3.5._ q ",
"# = L 6.3.3.3.3.3.3.3.3.3.3.3.3.3.3.5.! , . ; R 6.3.3.3.3.3.3.3.3.3.3.3.3.3.3.3.4.} 8 . * H 7.3.3.3.3.3.3.3.3.3.3.3.3.3.3.5._ q ",
"# = L 6.3.3.3.3.3.3.3.3.3.3.3.3.3.3.6.W X   ; R 6.3.3.3.3.3.3.3.3.3.3.3.3.3.3.3.4.} 8 . * H 7.3.3.3.3.3.3.3.3.3.3.3.3.3.3.5._ q ",
"# = / u.7.7.7.7.7.7.7.7.7.7.7.7.7.7.9.2.i * * ] u.7.7.7.7.7.7.7.7.7.7.7.7.7.7.7.w.;.0   * E i.7.7.7.7.7.7.7.7.7.7.7.7.7.7.t.%.w ",
"% = s R H H H H H H H H H H H H H H F T C 4 # d R H H H H H H H H H H H H H H H U v 4 o = p W H H H H H H H H H H H H H H Y k 6 ",
"- - * * * * * * * * * * * * * * * * * * = - - * * * * * * * * * * * * * * * * * * * - - - * * * * * * * * * * * * * * * * * * - ",
"- - + . . . . . . . . . . . . . . . . . O - - + . . . . . . . . . . . . . . . . . O - - - + . . . . . . . . . . . . . . . . O - ",
"- - 2 q 8 8 8 8 8 8 8 8 8 8 8 8 8 8 8 0 6 - - 2 q 8 8 8 8 8 8 8 8 8 8 8 8 8 8 8 0 6 - - - 2 q 8 8 8 8 8 8 8 8 8 8 8 8 8 8 q 5 ; ",
"% = m -.} } } } } } } } } } } } } } } #.K 4 # N -.} } } } } } } } } } } } } } } #.J 6 X * x -.} } } } } } } } } } } } } } =.D 9 ",
"# = Q r.4.4.4.4.4.4.4.4.4.4.4.4.4.4.4.0.>.6 @ ) r.4.4.4.4.4.4.4.4.4.4.4.4.4.4.4.0.$.8 . * P t.4.4.4.4.4.4.4.4.4.4.4.4.4.4.e.[ w ",
"# = L 6.3.3.3.3.3.3.3.3.3.3.3.3.3.3.3.4.X.6 @ R 6.3.3.3.3.3.3.3.3.3.3.3.3.3.3.3.4.} 8 . * H 7.3.3.3.3.3.3.3.3.3.3.3.3.3.3.5._ q ",
"# = L 6.3.3.3.3.3.3.3.3.3.3.3.3.3.3.3.4.X.6 @ R 6.3.3.3.3.3.3.3.3.3.3.3.3.3.3.3.4.} 8 . * H 7.3.3.3.3.3.3.3.3.3.3.3.3.3.3.5._ q ",
"# = L 6.3.3.3.3.3.3.3.3.3.3.3.3.3.3.3.4.X.6 @ R 6.3.3.3.3.3.3.3.3.3.3.3.3.3.3.3.4.} 8 . * H 7.3.3.3.3.3.3.3.3.3.3.3.3.3.3.5._ q ",
"# = L 6.3.3.3.3.3.3.3.3.3.3.3.3.3.3.3.4.X.6 @ R 6.3.3.3.3.3.3.3.3.3.3.3.3.3.3.3.4.} 8 . * H 7.3.3.3.3.3.3.3.3.3.3.3.3.3.3.5._ q ",
"# = L 6.3.3.3.3.3.3.3.3.3.3.3.3.3.3.3.4.X.6 @ R 6.3.3.3.3.3.3.3.3.3.3.3.3.3.3.3.4.} 8 . * H 7.3.3.3.3.3.3.3.3.3.3.3.3.3.3.5._ q ",
"# = L 6.3.3.3.3.3.3.3.3.3.3.3.3.3.3.3.4.X.6 @ R 6.3.3.3.3.3.3.3.3.3.3.3.3.3.3.3.4.} 8 . * H 7.3.3.3.3.3.3.3.3.3.3.3.3.3.3.5._ q ",
"# = L 6.3.3.3.3.3.3.3.3.3.3.3.3.3.3.3.4.X.6 @ R 6.3.3.3.3.3.3.3.3.3.3.3.3.3.3.3.4.} 8 . * H 7.3.3.3.3.3.3.3.3.3.3.3.3.3.3.5._ q ",
"# = L 6.3.3.3.3.3.3.3.3.3.3.3.3.3.3.3.4.X.6 @ R 6.3.3.3.3.3.3.3.3.3.3.3.3.3.3.3.4.} 8 . * H 7.3.3.3.3.3.3.3.3.3.3.3.3.3.3.5._ q ",
"# = L 6.3.3.3.3.3.3.3.3.3.3.3.3.3.3.3.4.X.6 @ R 6.3.3.3.3.3.3.3.3.3.3.3.3.3.3.3.4.} 8 . * H 7.3.3.3.3.3.3.3.3.3.3.3.3.3.3.5._ q ",
"# = L 6.3.3.3.3.3.3.3.3.3.3.3.3.3.3.3.4.X.6 @ R 6.3.3.3.3.3.3.3.3.3.3.3.3.3.3.3.4.} 8 . * H 7.3.3.3.3.3.3.3.3.3.3.3.3.3.3.5._ q ",
"# = L 6.3.3.3.3.3.3.3.3.3.3.3.3.3.3.3.4.X.6 @ R 6.3.3.3.3.3.3.3.3.3.3.3.3.3.3.3.4.} 8 . * H 7.3.3.3.3.3.3.3.3.3.3.3.3.3.3.5._ q ",
"# = L 6.3.3.3.3.3.3.3.3.3.3.3.3.3.3.3.4.X.6 @ R 6.3.3.3.3.3.3.3.3.3.3.3.3.3.3.3.4.} 8 . * H 7.3.3.3.3.3.3.3.3.3.3.3.3.3.3.5._ q ",
"# = L 6.3.3.3.3.3.3.3.3.3.3.3.3.3.3.3.4.X.6 @ R 6.3.3.3.3.3.3.3.3.3.3.3.3.3.3.3.4.} 8 . * H 7.3.3.3.3.3.3.3.3.3.3.3.3.3.3.5._ q ",
"# = L 6.3.3.3.3.3.3.3.3.3.3.3.3.3.3.3.4.X.6 @ R 6.3.3.3.3.3.3.3.3.3.3.3.3.3.3.3.4.} 8 . * H 7.3.3.3.3.3.3.3.3.3.3.3.3.3.3.5._ q ",
"# = L 6.3.3.3.3.3.3.3.3.3.3.3.3.3.3.3.4.X.6 @ R 6.3.3.3.3.3.3.3.3.3.3.3.3.3.3.3.4.} 8 . * H 7.3.3.3.3.3.3.3.3.3.3.3.3.3.3.5._ q ",
"# = / y.6.6.6.6.6.6.6.6.6.6.6.6.6.6.6.q.<.6 @ ' y.6.6.6.6.6.6.6.6.6.6.6.6.6.6.6.q.*.0   * I u.6.6.6.6.6.6.6.6.6.6.6.6.6.6.t.O.w ",
"% = j ' R R R R R R R R R R R R R R R ( Z 3 # l ' R R R R R R R R R R R R R R R ( B 4 o * f { R R R R R R R R R R R R R R ` n 7 ",
"- - ; ; ; ; ; ; ; ; ; ; ; ; ; ; ; ; ; ; ; - - ; ; ; ; ; ; ; ; ; ; ; ; ; ; ; ; ; ; ; - - - ; ; ; ; ; ; ; ; ; ; ; ; ; ; ; ; ; ; - ",
"- - + . . . . . . . . . . . . . . . . . O - - + . . . . . . . . . . . . . . . . . O - - - + . . . . . . . . . . . . . . . . + - ",
"- - : < , , , , , , , , , , , , , , , < 1 - - > < , , , , , , , , , , , , , , , , > - - - : < , , , , , , , , , , , , , , , > - ",
"% = z  .! ! ! ! ! ! ! ! ! ! ! ! ! ! ! } F 4 # c  .! ! ! ! ! ! ! ! ! ! ! ! ! ! ! } A 4 o * h ..! ! ! ! ! ! ! ! ! ! ! ! ! ! | V 7 ",
"# = ^ t.5.5.5.5.5.5.5.5.5.5.5.5.5.5.8.,.y & = ` t.5.5.5.5.5.5.5.5.5.5.5.5.5.5.5.q.&.0   * I y.5.5.5.5.5.5.5.5.5.5.5.5.5.5.r.O.w ",
"# = L 6.3.3.3.3.3.3.3.3.3.3.3.3.3.3.6.W o   ; R 6.3.3.3.3.3.3.3.3.3.3.3.3.3.3.3.4.} 8 . * H 7.3.3.3.3.3.3.3.3.3.3.3.3.3.3.5._ q ",
"# = L 6.3.3.3.3.3.3.3.3.3.3.3.3.3.3.5.! , . ; R 6.3.3.3.3.3.3.3.3.3.3.3.3.3.3.3.4.} 8 . * H 7.3.3.3.3.3.3.3.3.3.3.3.3.3.3.5._ q ",
"# = L 6.3.3.3.3.3.3.3.3.3.3.3.3.3.3.5.! , . ; R 6.3.3.3.3.3.3.3.3.3.3.3.3.3.3.3.4.} 8 . * H 7.3.3.3.3.3.3.3.3.3.3.3.3.3.3.5._ q ",
"# = L 6.3.3.3.3.3.3.3.3.3.3.3.3.3.3.5.! , . ; R 6.3.3.3.3.3.3.3.3.3.3.3.3.3.3.3.4.} 8 . * H 7.3.3.3.3.3.3.3.3.3.3.3.3.3.3.5._ q ",
"# = L 6.3.3.3.3.3.3.3.3.3.3.3.3.3.3.5.! , . ; R 6.3.3.3.3.3.3.3.3.3.3.3.3.3.3.3.4.} 8 . * H 7.3.3.3.3.3.3.3.3.3.3.3.3.3.3.5._ q ",
"# = L 6.3.3.3.3.3.3.3.3.3.3.3.3.3.3.5.! , . ; R 6.3.3.3.3.3.3.3.3.3.3.3.3.3.3.3.4.} 8 . * H 7.3.3.3.3.3.3.3.3.3.3.3.3.3.3.5._ q ",
"# = L 6.3.3.3.3.3.3.3.3.3.3.3.3.3.3.5.! , . ; R 6.3.3.3.3.3.3.3.3.3.3.3.3.3.3.3.4.} 8 . * H 7.3.3.3.3.3.3.3.3.3.3.3.3.3.3.5._ q ",
"# = L 6.3.3.3.3.3.3.3.3.3.3.3.3.3.3.5.! , . ; R 6.3.3.3.3.3.3.3.3.3.3.3.3.3.3.3.4.} 8 . * H 7.3.3.3.3.3.3.3.3.3.3.3.3.3.3.5._ q ",
"# = L 6.3.3.3.3.3.3.3.3.3.3.3.3.3.3.5.! , . ; R 6.3.3.3.3.3.3.3.3.3.3.3.3.3.3.3.4.} 8 . * H 7.3.3.3.3.3.3.3.3.3.3.3.3.3.3.5._ q ",
"# = L 6.3.3.3.3.3.3.3.3.3.3.3.3.3.3.5.! , . ; R 6.3.3.3.3.3.3.3.3.3.3.3.3.3.3.3.4.} 8 . * H 7.3.3.3.3.3.3.3.3.3.3.3.3.3.3.5._ q ",
"# = L 6.3.3.3.3.3.3.3.3.3.3.3.3.3.3.5.! , . ; R 6.3.3.3.3.3.3.3.3.3.3.3.3.3.3.3.4.} 8 . * H 7.3.3.3.3.3.3.3.3.3.3.3.3.3.3.5._ q ",
"# = L 6.3.3.3.3.3.3.3.3.3.3.3.3.3.3.5.! , . ; R 6.3.3.3.3.3.3.3.3.3.3.3.3.3.3.3.4.} 8 . * H 7.3.3.3.3.3.3.3.3.3.3.3.3.3.3.5._ q ",
"# = L 6.3.3.3.3.3.3.3.3.3.3.3.3.3.3.5.! , . ; R 6.3.3.3.3.3.3.3.3.3.3.3.3.3.3.3.4.} 8 . * H 7.3.3.3.3.3.3.3.3.3.3.3.3.3.3.5._ q ",
"# = L 6.3.3.3.3.3.3.3.3.3.3.3.3.3.3.6.W X   ; R 6.3.3.3.3.3.3.3.3.3.3.3.3.3.3.3.4.} 8 . * H 7.3.3.3.3.3.3.3.3.3.3.3.3.3.3.5._ q ",
"# = / y.6.6.6.6.6.6.6.6.6.6.6.6.6.6.8.1.u & = ' y.6.6.6.6.6.6.6.6.6.6.6.6.6.6.6.w.;.0   * E u.6.6.6.6.6.6.6.6.6.6.6.6.6.6.t.%.w ",
"% = g ! L L L L L L L L L L L L L L K ! A 4 # h ! L L L L L L L L L L L L L L L Q m 4 o * a ~ L L L L L L L L L L L L L L Q c 7 ",
"- - - = = = = = = = = = = = = = = = = - ; - - - = = = = = = = = = = = = = = = = = = - - - - = = = = = = = = = = = = = = = = = - ",
"- - % # # # # # # # # # # # # # # # # # % - - % # # # # # # # # # # # # # # # # # % - - - & # # # # # # # # # # # # # # # # % - "
};
