/* XPM */
static char *_e9f5f8fc1ee4b0f9b0de66dacf27620rJZIYqeBChHYpuT7[] = {
/* columns rows colors chars-per-pixel */
"20 20 118 2 ",
"   c None",
".  c black",
"X  c #080909",
"o  c #131111",
"O  c #1E1E1E",
"+  c #232222",
"@  c #6E0000",
"#  c #740202",
"$  c #7B0303",
"%  c #7F0808",
"&  c #403F3F",
"*  c #6E3030",
"=  c #444444",
"-  c #4B4A4A",
";  c #5C5B5B",
":  c #666868",
">  c #840505",
",  c #8B0404",
"<  c #840808",
"1  c #8E0808",
"2  c #940505",
"3  c #990707",
"4  c #9B0808",
"5  c #A50000",
"6  c #AA0000",
"7  c #A30808",
"8  c #AB0909",
"9  c #BD0000",
"0  c #B50909",
"q  c #BB0909",
"w  c #863E3E",
"e  c #893D3D",
"r  c #A43C3C",
"t  c #BC3D3D",
"y  c #C30000",
"u  c #CE0000",
"i  c #C30A0A",
"p  c #CC0909",
"a  c #D40000",
"s  c #D50A0A",
"d  c #DB0B0B",
"f  c #E40000",
"g  c #EB0000",
"h  c #E40B0B",
"j  c #EC0C0C",
"k  c #F30000",
"l  c #FE0000",
"z  c #F30C0C",
"x  c #FE0E0E",
"c  c #C33F3F",
"v  c #934444",
"b  c #9B5555",
"n  c #AD4949",
"m  c #BC4040",
"M  c #AC5757",
"N  c #A65858",
"B  c #B35353",
"V  c #A36565",
"C  c #B26565",
"Z  c #D14444",
"A  c #C25252",
"S  c #E45454",
"D  c #E85F5F",
"F  c #FC5C5C",
"G  c #CE6565",
"H  c #C47676",
"J  c #DE7676",
"K  c #E96060",
"L  c #F66B6B",
"P  c #FC6D6D",
"I  c #E67777",
"U  c #EB7171",
"Y  c #FF7676",
"T  c #FF7979",
"R  c #838484",
"E  c #8E8E8E",
"W  c #8CA5A5",
"Q  c #8AA9A9",
"!  c #A4A4A4",
"~  c #AEAFAF",
"^  c #B7B6B6",
"/  c #B9B7B7",
"(  c #BEBFBF",
")  c #9CC1C1",
"_  c #A0C0C0",
"`  c #AFC7C7",
"'  c #A2CBCB",
"]  c #ACC8C8",
"[  c #B2C5C5",
"{  c #B3CCCC",
"}  c #ADD5D5",
"|  c #B3D5D5",
" . c #BED5D5",
".. c #B4D8D8",
"X. c #BBDADA",
"o. c #C1C1C1",
"O. c #CDCCCC",
"+. c #CFD0D0",
"@. c #C4DCDC",
"#. c LightGray",
"$. c #DEDCDC",
"%. c #C2E2E2",
"&. c #C9E1E1",
"*. c #C4EBEB",
"=. c #CDEAEA",
"-. c #DEF5F5",
";. c #D9FFFF",
":. c #E1E0E0",
">. c #E0F7F7",
",. c #E1FFFF",
"<. c #E2FFFF",
"1. c #E4FFFF",
"2. c #EDFFFF",
"3. c #F8F7F7",
"4. c #F5FFFF",
"5. c #FAFBFB",
"6. c #FAFFFF",
"7. c white",
/* pixels */
"    x j p h x z s s z x j p j x z d     ",
"  x x j i d x z s s x x h y h x z s p   ",
"x x j d 2 q x h 0 4 z z s 2 i x d q 1 1 ",
"x x h s < 8 x s 8 > z j s % q x d 8 % # ",
"x x j s 1 8 x s 0 1 z j s > q x d 0 < % ",
"l l f a $ 5 l a 6 $ l g u # 9 l a 6 # @ ",
"F F S L H J P D I M S Y K C J T P A b b ",
"<.<.4.@.{ ] %.<.&.7.;...2.@.) ' %.6.>.-.",
"O.#.5.: . . R ~ . ( 7.X ! R . . : 5.#.O.",
"#.#.O.7.= = 7.! . O o.+ E 7.= = 7.+.#.#.",
"#.#.#.7.= - 7.E + [ O . ! 7.= = 7.#.#.#.",
":.$./ O.+ - 7.; o 3.o.. E 7.= + +.^ $.:.",
"} } ) *.[ Q *.X.W  .*.| { [ | ' _ {  . .",
"Z t m B V n Z G N e c U M * G P r v e e ",
"l l g 9 $ y l y 5 2 k a y > y l u 5 , , ",
"x x j d 7 i x d i 8 x j d 4 s x d i 7 4 ",
"x x j s 3 i x s q 7 x z s 3 p x s i 4 4 ",
"x z h p 3 i z s 0 7 j h p 3 p z p q 4 4 ",
"  d p q 4 q h i 8 7 s p q 3 i h q 8 7   ",
"    p q 3 q h q 8 7 s p 0 3 i d q 8     "
};
