/* XPM */
static char *_ced9d5720c9482ebf12bf88e619569bm7U7ugTLVNVplI9S[] = {
/* columns rows colors chars-per-pixel */
"64 64 167 2 ",
"   c None",
".  c #010101",
"X  c gray5",
"o  c #101010",
"O  c gray10",
"+  c #232323",
"@  c #2B2B2B",
"#  c #353535",
"$  c #393939",
"%  c #610000",
"&  c #6D0101",
"*  c #740505",
"=  c #7C0505",
"-  c gray25",
";  c #6C6C6C",
":  c gray46",
">  c #7C7C7C",
",  c #830606",
"<  c #8B0606",
"1  c #940606",
"2  c #9A0404",
"3  c #950808",
"4  c #9C0808",
"5  c #A30101",
"6  c #AA0101",
"7  c #A30808",
"8  c #AB0808",
"9  c #B10101",
"0  c #BC0101",
"q  c #B30909",
"w  c #BB0909",
"e  c #C30101",
"r  c #CB0101",
"t  c #C30909",
"y  c #CB0909",
"u  c #D40101",
"i  c #DC0202",
"p  c #D40A0A",
"a  c #DB0B0B",
"s  c #E20303",
"d  c #EC0101",
"f  c #E30B0B",
"g  c #ED0C0C",
"h  c #EF0C0C",
"j  c #EB0C0C",
"k  c #F70000",
"l  c #F60606",
"z  c #F20000",
"x  c #F80000",
"c  c red",
"v  c #FF0505",
"b  c #FF0606",
"n  c #F80000",
"m  c #F10D0D",
"M  c #F30C0C",
"N  c #F40C0C",
"B  c #F50C0C",
"V  c #F40D0D",
"C  c #F50D0D",
"Z  c #F60C0C",
"A  c #F70C0C",
"S  c #F60D0D",
"D  c #F70D0D",
"F  c #F50D0D",
"G  c #FF0808",
"H  c #F90C0C",
"J  c #F90D0D",
"K  c #FB0C0C",
"L  c #FA0D0D",
"P  c #FD0D0D",
"I  c #FE0D0D",
"U  c #FF0D0D",
"Y  c #FF0E0E",
"T  c #FE0D0D",
"R  c #977676",
"E  c #9A7575",
"W  c #9C7A7A",
"Q  c #A37676",
"!  c #AE7575",
"~  c #A37A7A",
"^  c #AB7B7B",
"/  c #B47575",
"(  c #B47B7B",
")  c #BC7B7B",
"_  c #848484",
"`  c #8B8B8B",
"'  c #939393",
"]  c #989797",
"[  c #9C9C9C",
"{  c #A88181",
"}  c #B98484",
"|  c #A09F9F",
" . c #B59696",
".. c #B99797",
"X. c #BA9999",
"o. c #BE9898",
"O. c #A5A4A4",
"+. c #A8A7A7",
"@. c #ACABAB",
"#. c #B0AFAF",
"$. c #B4B4B4",
"%. c #B8B7B7",
"&. c #BCBCBC",
"*. c #C48888",
"=. c #C98E8E",
"-. c #CC9494",
";. c #C49B9B",
":. c #C79C9C",
">. c #C99C9C",
",. c #D19393",
"<. c #DF9696",
"1. c #D49C9C",
"2. c #DC9B9B",
"3. c #E09797",
"4. c #E79898",
"5. c #E39D9D",
"6. c #E39F9F",
"7. c #CAA2A2",
"8. c #CEA2A2",
"9. c #D4A2A2",
"0. c #DEA2A2",
"q. c #DDA1A1",
"w. c #C0BEBE",
"e. c #E3A2A2",
"r. c #E1A2A2",
"t. c #E5A2A2",
"y. c #E7A2A2",
"u. c #E9A3A3",
"i. c #EAA2A2",
"p. c #F1A2A2",
"a. c #F2A2A2",
"s. c #F6A3A3",
"d. c #97C5C5",
"f. c #9EC6C6",
"g. c #9ECFCF",
"h. c #9FD0D0",
"j. c #A6C1C1",
"k. c #ABC7C7",
"l. c #A2CECE",
"z. c #ACCCCC",
"x. c #B3CECE",
"c. c #ADD0D0",
"v. c #B3D2D2",
"b. c #B9D6D6",
"n. c #B8DDDD",
"m. c #B7E3E3",
"M. c #C3C3C3",
"N. c #CCCCCC",
"B. c #D3D3D3",
"V. c #D8D7D7",
"C. c #DCDCDC",
"Z. c #C6F2F2",
"A. c #C9F3F3",
"S. c #C5FBFB",
"D. c #CDFEFE",
"F. c #D5FEFE",
"G. c #DCFCFC",
"H. c #E4E4E4",
"J. c #E8E7E7",
"K. c #ECECEC",
"L. c #F0EFEF",
"P. c #E5FEFE",
"I. c #ECFFFF",
"U. c #F2F2F2",
"Y. c #F9F7F7",
"T. c #F3FFFF",
"R. c #FEFEFE",
/* pixels */
"                                                                                                                                ",
"                                                                                                                                ",
"                                                                                                                                ",
"        U U U M A H j p a f y t w p Y Y U A M H M a a a p t t y H U U H M H H a a a a t t w m Y Y Y D D U f p a a t t y         ",
"      U U U U A M K j p a a y t w y Y Y Y D m D M a a i y t t y H U U H M A A a p a p t w w m Y Y Y V D Y f p f a t t t t       ",
"      U U U U A Z G M p a f y y w a Y Y Y D D D M a a f p y t p H U U H A H K f a f a t y t m Y Y Y V V Y f p f a y y y y       ",
"      U U U U A Z G j p a f y y w a Y Y Y D V Y M a a a p y y y H U U U Z K Z a a a a t t t m Y Y D V V U f p a a y y y y       ",
"      U U U U f a f a t y p 2 , = 7 Y Y Y g a f a t y p 8 , < 1 A U U j a f f y t a q < < , f Y Y V f f f p t p t < < 1 1       ",
"      U U U U a p f p w y y < * * 3 Y Y Y f p a a t t p 4 = = , M U U j p a a t t p q * * * f Y Y V p a f t w y w = = = ,       ",
"      U U U U f a f p t y p 3 , * 7 Y Y Y f p f a t t p 7 = , 3 V Y U g a f f t t p q , = = f Y Y V a a f p t p t < , 3 <       ",
"      U U U U a a f p t y p 3 = * 7 Y Y Y g a f a t t p 7 , , 3 M U U g a a a y t p q , = = f Y Y C a a f p w p w , , < <       ",
"      U U U U f a f a t y p 3 = * 4 Y Y Y f p f a t t p 7 , = < V U U g p f f y t p q = = = f Y Y C a a f y w p t , < < <       ",
"      U U U U f a f p t y p 3 = * 4 Y Y Y g p f a t y p 7 , , 3 V Y U g a a a y t p q = = = f Y Y D a a f p w p w , = 3 <       ",
"      U U U U f a f p t t p 3 = * 7 Y Y Y f a f a t t p 7 , , 3 A U U g p f f t t p q , = = a Y Y D a f f y w p t , < < <       ",
"      U U U Y f a f a t y p 3 = * 4 Y Y Y f p f a t t p 7 , , < V U U g a f a y t p q , , = a Y Y V a a f p w p t < , < <       ",
"      U U U U f a f p t t p 3 = * 7 Y Y Y f a f a t t p 7 , , 1 V Y U j p f f y t p q , = = f Y Y V a a f p w p w , , < <       ",
"      U U U U f a f p t y p 1 = * 7 Y Y U j p f a y t p 7 , = 1 A U U g a a a y t p q , = = f Y Y V a a f y t p w < , < <       ",
"      U U U U f a f p t y y 2 = * 4 Y U U f a f a t t p 7 , , 1 M U U g a f f t t p q = , = a Y Y D a f f p t y t , , < <       ",
"      U U U U f a f p t y p 1 = * 7 Y U U f p f a t t p 7 , , 1 M Y U g p f f y t p q , = = a Y Y V a a f y t y w , , < <       ",
"      b b b b s i s u e r r 2 * & 2 G b b d p s i e e u 5 = = < l G G d i i i r e u 9 , * * s b G A p a s r e r e , , < ,       ",
"      c c c c s u s u 0 e r < * % 2 c c c d u i i 0 0 r 2 & & , k c c d u i s e 0 u 6 & * & i c b k u i s r 0 r 0 * * = =       ",
"      p.p.p.p.t.t.i.t.0.t.6.;. . .>.s.a.a.u.e.i.i.0.0.e.9.7.7.7.2.3.<.6.u.t.t.e.0.i.1...X.X.2.3.<.5.u.i.t.e.e.t.5.....o.o.      ",
"      I.I.P.P.I.T.I.I.T.T.T.I.G.G.P.I.P.P.I.I.I.I.T.T.I.T.R.R.R.D.D.S.G.T.I.I.T.T.R.I.G.P.P.F.S.S.F.T.I.I.T.T.T.T.P.P.P.P.      ",
"      K.K.L.K.K.K.J.U.R.R.R.U.K.J.U.R.R.R.U.J.K.U.R.R.R.Y.J.U.L.B.N.N.J.R.R.R.U.J.K.K.K.K.K.U.U.J.U.R.R.R.U.H.L.J.B.B.B.B.      ",
"      J.H.J.J.J.K.K.H.N.N.B.&.&.%.M.B.N.N.H.J.K.H.B.N.N.C.K.J.J.B.B.V.B.N.N.N.H.J.U.C.%.%.&.&.&.%.M.B.N.N.H.L.K.J.B.N.B.B.      ",
"      B.B.B.B.H.L.R.[ . . . . . . . . . . ' R.K.%.. . . _ Y.N.B.K.L.R._ . . . %.K.R.' . . . . . . . . . . [ R.L.H.B.B.B.B.      ",
"      B.B.N.B.J.K.R.[ . . . . . . . . . . ' R.L.%.. . . _ U.M.B.J.K.R._ . . . &.L.R.' . . . . . . . . . . ] R.L.J.B.B.B.B.      ",
"      B.B.B.B.K.U.R.] . . . . . . . . . . ' R.K.&.. . . ` R.U.U.U.K.R.` . . . &.L.R.' . . . . . . . . . . ] R.U.K.B.B.B.B.      ",
"      B.B.B.B.C.H.K.k.R _ ` + . . + ` _ > &.H.K.&.. . . $ > ; : V.H.T._ . . . &.U.H.&.> _ ` + . . + ` _ > k.L.H.H.B.B.B.B.      ",
"      B.B.B.B.B.N.N.C.Y.R.R.- . . - R.R.U.H.N.U.&.. . . . . . . &.C.K._ . . . &.K.N.C.U.R.R.$ . . - R.R.Y.C.N.N.B.B.B.B.B.      ",
"      B.B.V.B.V.B.V.B.N.H.L.$ . . $ K.H.N.B.B.U.&.X . . . . . X B.Y.R.` . . . k.U.B.B.N.H.U.$ . . $ U.H.N.B.B.B.B.B.V.B.B.      ",
"      B.B.B.B.B.B.B.B.B.H.L.$ . . $ U.H.B.B.B.K.&.. . . X O X + &.B.C.R . . . w.K.B.B.B.H.U.$ . . $ U.H.B.B.B.B.B.B.B.B.B.      ",
"      B.V.B.B.B.B.B.B.B.H.U.$ . . $ L.H.N.B.B.L.w.. . . > C.B.w.+ o O X . . . &.L.B.B.B.C.U.$ . . $ K.H.B.B.B.B.B.B.B.B.V.      ",
"      B.B.B.B.B.B.B.B.B.H.K.$ . . $ U.J.B.B.B.L.&.. . . ` R.L.B.X . . . . . . &.L.B.B.B.J.L.$ . . $ U.H.B.B.B.B.B.B.B.B.B.      ",
"      V.B.B.B.V.C.C.C.C.K.Y.$ . . $ L.H.N.C.V.R.M.. . . _ L.H.k.. . . . . . . M.L.B.B.B.H.U.$ . . $ Y.K.V.C.C.C.C.B.B.V.B.      ",
"      B.B.B.V.M.w.w.M.k.B.C.# . . $ L.H.B.N.&.C.#.. . . _ U.C.N.: ; : $ . . . &.U.N.B.B.J.L.$ . . # C.B.w.M.M.k.M.B.B.B.B.      ",
"      B.B.V.B.+.| O.O.O.#.&.@ . . $ K.H.V.%.] &.' . . . _ U.N.B.L.U.R.` . . . &.U.B.B.B.H.L.# . . @ &.@.O.O.O.| +.V.V.B.B.      ",
"      V.B.C.C.#.O.#.@.O.%.w.@ . . $ U.J.C.%.] M.' . . . _ R.B.V.B.B.T._ . . . &.Y.B.B.B.J.U.$ . . @ M.&.+.+.@.+.$.V.C.V.V.      ",
"      V.B.C.V.#.O.#.@.O.%.w.@ . . $ U.K.C.%.[ w.' . . . _ Y.B.V.V.B.Y.R . . . k.U.B.B.B.J.U.# . . @ M.&.+.@.@.+.#.V.V.B.V.      ",
"      $.#.#.#.@.@.O.%.B.B.V.O.` ' [ $.$.@.M.B.V.N.] ' ' +.#.#.#.#.#.#.%.w.w.w.$.@.#.#.$.$.@.&.&.&.&.O.+.@.@.@.+.@.#.#.#.#.      ",
"      O.O.O.O.+.+.[ &.H.V.C.x.%.M.&.| | [ N.H.C.B.&.w.M.@.O.O.O.O.+.] M.Y.U.U.#.[ O.O.O.| ] C.R.R.C.[ O.@.+.@.+.@.O.O.O.O.      ",
"      g.l.l.l.l.z.d.n.I.P.I.n.$.x.z.g.g.d.Z.P.G.F.k.k.z.z.x.x.x.l.h.d.m.G.F.G.v.z.c.c.v.x.k.A.G.F.Z.j.l.l.z.x.z.z.v.x.x.x.      ",
"      ) ) ) ) ( ( / } ;.:.>.^ E W ~ ) ) / =.1.1.-.~ ~ ^ ~ E W Q ) ) / *.1.1.1.^ Q ^ ~ ~ E E -.e.0.,.! ( ( ^ Q ^ ~ Q ~ Q ~       ",
"      d s d d u e i 0 < 2 2 , , * 2 n z d r 0 r e 5 2 5 1 , = < s d d i 0 e r 5 2 5 2 , = * r l s i r r u 9 1 5 2 , , , ,       ",
"      a i i f r e y 0 2 2 5 < , * 2 d f s y e r e 2 2 5 1 , , < a s f u 0 r y 5 2 5 1 , , * y d s a e e y 6 2 7 2 , , < ,       ",
"      a a a a t t y q 1 2 2 < , * 3 g f a y w y w 2 3 7 < , , < p f a y w t t 4 3 2 3 , , = y m a p w t y 7 1 2 2 < , , ,       ",
"      A V H A a p f y w t y 7 1 < 8 H D H f p a p w w t 8 1 3 7 j H A j p a a t w y q 1 1 1 f D A M p a a y w t w 2 4 4 4       ",
"      U Y U U f a j a y p p q 4 1 w Y U U g a f f y p p w 7 4 8 U U U M f f f p y a t 7 2 2 j Y U U a f j p y p y 7 7 7 8       ",
"      U U U U f a f p t y y 8 1 < q Y Y Y f p f a t t y q 3 4 8 A U U g p f f y t y w 4 3 3 f Y U A a a f y t y t 4 4 7 7       ",
"      U U U U f a f p t y y 8 3 3 q Y Y Y f p f a t t y q 4 3 8 A U U g a f a t t p w 4 3 3 g Y U A a a f y t y t 7 4 7 7       ",
"      U U U U f p f a t y y 8 3 3 8 Y Y Y g a f f t y y q 4 4 8 M U U g p f f y t p w 4 3 3 f Y Y V a a f p t y t 4 4 7 7       ",
"      U U U U f a f p t y p 8 3 < q Y Y Y f a f a t y y 8 4 4 7 A U U g p f a y t p w 4 3 3 f Y U V a a f y t y t 4 7 7 7       ",
"      U U U U f a f p t t p 7 2 < q Y Y Y f p f a t t y q 4 4 7 M U U g a a f y t p w 3 3 3 f Y U A a a f y t y t 4 4 7 4       ",
"      U U U U f a f a t y y 8 3 3 q Y Y Y f a f f t y y q 4 4 8 V Y U g a a a y t p w 4 3 3 g Y Y V a a f p t y t 4 4 7 7       ",
"      U U U U f p f p t y y 8 3 < 8 Y Y Y f a f a t t y q 4 4 7 A U U g a f a y t p w 3 4 3 f Y U V a a f y t y t 7 4 7 7       ",
"      U U U U f a j a t y p 8 3 3 q Y Y Y m a f f t t p q 4 4 7 A U U M a f f y y p w 4 3 3 g Y U H a f f p t y t 4 4 7 7       ",
"      D H H H f p f p t t y 7 3 3 8 Y Y D f a a a t t y q 4 4 7 V D Y j p a f t w y w 4 4 3 f Y D V a a f y t y t 7 4 7 7       ",
"      a a f a t t y t 8 q w 7 7 3 8 f f f y t t t q q q 7 7 4 7 a f a p t t y q q w 8 7 4 3 y g f a w t y w 8 q q 4 4 7 7       ",
"      a a f a y t t t q q w 8 4 3 8 f f f y t t t q q w 8 4 7 7 a f a p t t t q q q q 4 4 3 p f f a t t y w q q q 4 7 7 7       ",
"      a a f a y t y t 8 q w 7 4 3 8 j f f y t y t q q w 8 4 4 7 a a f p t y y w q w 8 4 4 3 p g f p t t y w q q q 7 4 7 7       ",
"        a f f y t y t q q w 8 4 3 8 g f f y t y t q q w 8 4 4 7 a f f p t y t w q w 8 7 4 3 p g f a t t y w q w q 7 4 7         ",
"                                                                                                                                ",
"                                                                                                                                ",
"                                                                                                                                "
};
