/* XPM */
static char *_494dc86089247e4b4e98dfb0208717fPrBNLn5DfdMcXXRm[] = {
/* columns rows colors chars-per-pixel */
"80 80 173 2 ",
"   c None",
".  c #000000",
"X  c #0C0C0C",
"o  c #151515",
"O  c #1D1D1D",
"+  c #222222",
"@  c #2D2D2D",
"#  c gray21",
"$  c gray23",
"%  c #6C0000",
"&  c #740202",
"*  c #7C0606",
"=  c #7E0808",
"-  c #404040",
";  c #4C4C4C",
":  c gray32",
">  c #595959",
",  c #636363",
"<  c #6A6A6A",
"1  c #747474",
"2  c #7C7C7C",
"3  c #830606",
"4  c #8B0707",
"5  c #860808",
"6  c #8B0808",
"7  c #930606",
"8  c #9B0202",
"9  c #950808",
"0  c #9C0808",
"q  c #A30000",
"w  c #A30808",
"e  c #AC0808",
"r  c #B50000",
"t  c #BE0000",
"y  c #B40909",
"u  c #BB0909",
"i  c #8D3E3E",
"p  c #933F3F",
"a  c #9C3F3F",
"s  c #A43F3F",
"d  c #B73F3F",
"f  c #BA3D3D",
"g  c #C40000",
"h  c #CB0000",
"j  c #C50909",
"k  c #CB0909",
"l  c #D50000",
"z  c #DC0000",
"x  c #D30A0A",
"c  c #DC0B0B",
"v  c #E40000",
"b  c #EC0000",
"n  c #E20B0B",
"m  c #EB0C0C",
"M  c #F50000",
"N  c #FF0000",
"B  c #F40C0C",
"V  c #F60C0C",
"C  c #F70C0C",
"Z  c #F60D0D",
"A  c #F60E0E",
"S  c #F30C0C",
"D  c #F90C0C",
"F  c #FA0C0C",
"G  c #FB0D0D",
"H  c #FA0D0D",
"J  c #FB0E0E",
"K  c #FD0D0D",
"L  c #FF0D0D",
"P  c #FE0D0D",
"I  c #FF0E0E",
"U  c #FF0F0F",
"Y  c #FF0D0D",
"T  c #FF1010",
"R  c #C13E3E",
"E  c #CF3D3D",
"W  c #8D4040",
"Q  c #954E4E",
"!  c #994D4D",
"~  c #9D4E4E",
"^  c #9F5858",
"/  c #A14242",
"(  c #A84242",
")  c #A14F4F",
"_  c #A54F4F",
"`  c #AB4C4C",
"'  c #BE4040",
"]  c #B24D4D",
"[  c #AE5151",
"{  c #A45959",
"}  c #AB5858",
"|  c #B55151",
" . c #BE5858",
".. c #C44141",
"X. c #CE4141",
"o. c #C64D4D",
"O. c #CC4D4D",
"+. c #D34040",
"@. c #D94040",
"#. c #CB5252",
"$. c #CF5858",
"%. c #D05151",
"&. c #DD5151",
"*. c #D15858",
"=. c #D35858",
"-. c #D55959",
";. c #DA5959",
":. c #DE5959",
">. c #EF4E4E",
",. c #EE4D4D",
"<. c #F14F4F",
"1. c #E35454",
"2. c #EA5252",
"3. c #E15959",
"4. c #E45959",
"5. c #F35858",
"6. c #F85858",
"7. c #FC5A5A",
"8. c #838383",
"9. c gray55",
"0. c #959595",
"q. c #9E9D9D",
"w. c #A09F9F",
"e. c #9CBDBD",
"r. c #A4A4A4",
"t. c #A8A7A7",
"y. c #A3ADAD",
"u. c #AAAAAA",
"i. c #B0AFAF",
"p. c #A7B2B2",
"a. c #ABB4B4",
"s. c #AABEBE",
"d. c #B3B3B3",
"f. c #B2BBBB",
"g. c #BBBBBB",
"h. c #A3C5C5",
"j. c #ACC4C4",
"k. c #AECDCD",
"l. c #B2C4C4",
"z. c #B4CCCC",
"x. c #BFDFDF",
"c. c #B1D2D2",
"v. c #C4C4C4",
"b. c #CECECE",
"n. c #C0CBCB",
"m. c #D0CFCF",
"M. c #CCD5D5",
"N. c #CDDBDB",
"B. c #D4D4D4",
"V. c #D8D7D7",
"C. c #D3DCDC",
"Z. c #DBDBDB",
"A. c #CDE6E6",
"S. c #D5E1E1",
"D. c #DCE4E4",
"F. c #D3EDED",
"G. c #DFEAEA",
"H. c #CDF2F2",
"J. c #D5F5F5",
"K. c #DCF3F3",
"L. c #D6F9F9",
"P. c #DDFBFB",
"I. c #E3E3E3",
"U. c #E8E7E7",
"Y. c #E5EEEE",
"T. c #ECECEC",
"R. c #E3F3F3",
"E. c #EBF4F4",
"W. c #E6FCFC",
"Q. c #ECFFFF",
"!. c #F4F4F4",
"~. c #F2FFFF",
"^. c #FCFCFC",
/* pixels */
"                                                                                                                                                                ",
"                                                                                                                                                                ",
"                                                                                                                                                                ",
"                                                                                                                                                                ",
"          L L L F V V V D n x c n c j j j j S L L L F V S V V c z c n x j j j k D L L L D S B D S c x c c k j j u x L L L L B B V F m x c c c k j j j           ",
"        L L L L F S S V D n x c c x j j u j m L L L F S V V F c x c c x j j j k D L L L D B B D S c c c c x j h j x L L L L D B V F m c c n c j j j j j         ",
"        L L L L F F V F F n c c c c j j j j S L L L D S S V V c c c c x j j j j D T L L D B B D m c c c c k j j u x L L L L B B V F b x x c c k j j j j         ",
"        L L L L L V F F F n x c n c k x j j B L L L L V V F F n c c n c j x k x D L L L L B B L B c c c n x k x j c L L L L D D F F S c c n c k x x x k         ",
"        L L L L L S S B B n x c c x u u u u m L L L D S S B D c x x c x u j u j F L L L T m S B S x c c c j u j y k L L L L B S S V m x c c c j u j j u         ",
"        L L L L D c c c n k j j k u 3 5 = * n L L L S x c n c j j j x e = 5 = 4 B L L L m x c n c j j k x 0 = 4 * w T L L L n x c n x j j h j 7 = 4 5 4         ",
"        L L L L D c c c n k j j k u * 3 = & n L L L m c c c n j j j k e * 5 = 4 B L L L m x c c c j j j k 9 * 5 & 0 T L L L n c c n x j j k j 4 = 5 5 5         ",
"        L L L L D c c n n k j j x u 3 4 3 * n L L L S c c n n k j j x e 3 4 3 7 B L L L m c n n c j j h x 0 3 4 * 0 T L L T n c c n x j j j k 9 5 4 4 4         ",
"        L L L L L c c c n x j j k u 3 5 3 = n L L L S c c n c j j j x e = 4 3 4 B L L L m c n n c j j k x 0 = 4 * w T L L L n c c n c j j k j 7 3 4 4 4         ",
"        L L L L D c c n n k j j x u 3 5 = = n L L L B x c c n j j j x e 3 4 3 4 B L L L m x c n c j j k x 0 = 4 * w L L L L n c n n x j j x j 7 3 4 4 5         ",
"        L L L L L c c c n x j j x u 3 5 3 = n T L L S c c n n k j j x e = 4 3 7 B L L L m x n n n j j k k 0 = 6 & 0 L L L L n c c n c j j k k 7 3 4 4 4         ",
"        L L L L D c c n n k j j k u 3 5 3 * c T L L S c c n n j j j l e = 4 = 7 D L L L m c c n c j j k x 0 = 6 = w T L L T n c c n x j j k j 4 3 5 4 4         ",
"        L L L L D c c c n k j j x u 3 5 3 * n L L L S x c n n j j j x e = 6 3 7 B L L L m x n c c j j k x 0 = 4 & w L L L L n c c n c j j k k 7 5 4 4 4         ",
"        L L L L L c c n n x j j x u 3 5 3 = n L L L S c c n c j j j x e 3 4 = 4 A L L L m c c n c j j k x 0 = 4 * w L L L L n x c n x j j k j 6 3 4 5 4         ",
"        L L L L D c c c n k j j k u 3 5 3 * n T L L S c c n c k j j x e = 4 = 7 B T L L m c n n n j j k k 0 3 4 * w L L L L n c n n x j j k h 9 3 5 4 4         ",
"        L L L L L c c n n k j k x u 3 5 = = n T L L S x c c n k j j x e = 4 3 7 B L L L m c c n c j j k x 0 3 4 * 0 L L L T m c c n x j j k j 9 3 4 4 4         ",
"        L L L L L c c n n x j j x u 3 5 3 * n T L L S c c n n j j h x e = 4 3 7 B L L L m c c n c j j k x 0 = 4 * w L L L L n c c n c j j x j 4 3 6 4 4         ",
"        L L L L D c c c n k j j k u 3 5 3 * n L L L S x c n n k j j x e = 4 3 4 D L L L m c c n c j j k x 0 3 4 & w T L L L m x n n x j j k k 7 3 6 4 4         ",
"        L L L L T c c n n k j j x u 3 5 3 * n T L L S c c c n j j j x e = 4 = 9 B L L L m x c n c j j k k 0 = 4 * 0 L L L T n c c n x j j k k 7 3 6 4 5         ",
"        L L L L D c c c n x j j x u 3 5 = = n L L L S c c n n j j j x e = 4 = 9 A L L L m c n n c j j x x 0 3 4 * w T L L T m x c n c j j k j 7 3 6 4 4         ",
"        T L L T D c c n n k j j k u 5 4 = = n L L L S c c n c k j j x e 3 9 3 9 D L L T m c c n c j j k x 0 5 4 * 0 T T T L n c c n c j j k j 9 3 4 4 4         ",
"        N N N N N z z z v h t g h r & & & % v N N N M l z z z g t g h 8 % & % 3 M N N N b l z v z t g g h 4 & * % 8 N N N N v l z v l t t g g 3 & * * *         ",
"        6.6.6.6.6.4.:.3.4.-.$.*.;.#.~ ~ ! ! 3.7.6.6.5.;.3.4.4.-.$.*.;.#.{ { ^ } 2.>.,.,.4.3.3.4.:.*.$.-.;.[ ! ~ Q [ <.<.>.>.4.3.3.4.:.$.*.-.-._ ~ ) ) )         ",
"        W.Q.W.W.Q.Q.Q.Q.Q.~.~.~.~.Q.K.Y.R.R.W.Q.W.Q.Q.Q.Q.Q.Q.~.Q.~.Q.~.^.^.^.^.H.H.H.H.P.~.Q.Q.Q.~.~.~.~.E.G.R.K.K.H.H.H.H.Q.~.Q.Q.Q.~.~.~.~.R.K.Y.R.R.        ",
"        E.E.E.E.E.E.E.E.E.E.E.E.E.E.B.C.C.B.Y.E.E.R.E.E.E.E.E.E.E.R.T.E.!.E.!.E.C.C.C.N.G.E.T.E.E.E.E.E.!.D.C.C.C.C.N.N.N.N.Y.E.E.E.E.E.E.!.E.D.V.Z.C.S.        ",
"        T.T.T.T.T.T.T.T.T.!.!.^.^.!.I.I.I.I.!.^.^.^.!.T.T.T.T.!.!.^.^.!.T.T.!.T.B.m.B.b.U.^.^.^.^.T.T.T.T.U.I.I.I.I.U.U.I.I.!.^.^.^.!.U.T.T.T.B.M.B.B.B.        ",
"        T.T.T.T.T.T.T.U.T.T.E.!.!.T.Z.Z.V.Z.T.!.T.E.T.T.T.T.T.!.T.!.T.E.T.T.T.T.B.M.B.B.I.!.!.T.T.T.T.T.T.Z.Z.Z.Z.Z.Z.Z.V.V.T.!.!.T.T.T.T.T.T.V.B.B.B.B.        ",
"        V.V.V.B.V.T.T.!.^.< + + + + O O O O + + + + , !.I.I.Z.# + + + 2 !.V.B.V.U.U.T.!.2 + + + $ Z.I.I.!., O O O O O O O O + + + + < ^.!.T.T.V.m.B.B.B.        ",
"        b.B.m.b.B.T.T.!.^.; . . . . . . . . . . . . - !.Z.I.Z.X . . . > ^.B.m.B.T.T.!.^., . . . X Z.I.Z.!.- . . . . . . . . . . . . ; ^.^.T.T.V.B.B.B.B.        ",
"        B.B.B.B.B.T.T.!.^.> . . . . . . . . . . . . ; !.Z.I.Z.O . . . , !.m.b.m.T.T.T.^.1 . . . O Z.I.Z.!.: . . . . . . . . . . . . : ^.!.T.T.B.m.B.B.B.        ",
"        B.B.B.B.Z.E.T.^.^.; . . . . . . . . . . . . - !.Z.U.Z.O . . . 2 ^.^.!.^.T.!.!.^.1 . . . O Z.I.Z.!.$ . . . . . . . . . . . . ; ^.^.T.!.V.B.B.B.B.        ",
"        B.B.B.B.B.I.I.U.T.0., , 1 : . . . . : 1 < , 9.U.B.I.Z.O . . . $ 8.2 2 8.Z.U.D.^.< . . . O Z.I.Z.U.9., < 1 : . . . . : 1 , , 0.T.U.D.I.B.B.B.B.B.        ",
"        B.B.B.B.B.m.m.b.b.T.!.^.^.g.. . . . g.^.!.^.T.b.b.U.Z.O . . . . . . . . g.I.b.!., . . . O Z.I.b.b.T.^.!.^.g.. . . . g.^.!.^.U.b.b.B.m.B.B.B.B.B.        ",
"        B.B.V.B.B.B.B.B.B.V.B.B.^.u.. . . . u.!.B.B.B.B.B.I.Z.O . . . . . . . o v.I.B.!.< . . . + Z.I.B.B.B.B.B.^.u.. . . . u.^.B.B.B.B.B.B.B.B.B.B.B.B.        ",
"        B.B.B.B.B.B.B.B.B.B.B.B.!.u.. . . . u.!.B.B.B.B.B.I.Z.O . . . . . . . X B.^.U.^.< . . . O Z.U.m.B.B.B.B.!.u.. . . . u.!.B.B.B.B.B.B.B.B.B.B.B.B.        ",
"        B.B.B.B.B.B.B.B.B.B.B.B.!.u.. . . . u.!.B.B.B.B.B.U.Z.O . . . X o o X O g.B.v.U., . . . O Z.U.B.B.B.B.B.!.u.. . . . u.!.B.B.B.B.B.B.B.B.B.B.B.B.        ",
"        B.B.B.B.B.B.B.B.B.B.B.B.!.u.. . . . u.!.B.B.B.B.m.U.Z.O . . . , I.v.B.g.O o o o X . . . O Z.I.B.B.B.B.B.!.u.. . . . u.!.B.B.B.B.B.B.B.V.B.B.B.B.        ",
"        B.B.B.B.B.B.B.B.B.B.B.B.!.u.. . . . u.!.B.B.B.B.B.I.Z.O . . . < ^.I.^.B.. . . . . . . . O Z.I.m.B.B.B.B.!.t.. . . . u.!.B.V.B.B.B.B.B.B.B.B.B.B.        ",
"        B.B.B.B.B.B.B.B.B.B.B.B.!.u.. . . . u.!.B.B.B.B.b.U.Z.O . . . < !.B.I.v.o . . . . . . . O Z.I.M.B.B.B.B.!.u.. . . . u.!.B.B.B.B.B.B.B.B.B.B.B.B.        ",
"        B.B.B.B.B.Z.Z.Z.Z.Z.Z.Z.^.d.. . . . u.!.B.B.B.Z.Z.T.I.O . . . < !.B.U.v.. . . . . . . . O I.U.B.B.B.B.B.!.u.. . . . i.^.Z.Z.Z.Z.Z.Z.Z.B.B.B.B.B.        ",
"        B.B.B.Z.B.g.g.g.g.g.g.g.Z.0.. . . . u.!.B.V.b.g.d.b.v.O . . . < !.B.Z.b.8.2 8.8.$ . . . O Z.U.m.B.B.B.B.!.u.. . . . 0.Z.g.g.g.g.g.g.g.B.Z.B.B.B.        ",
"        B.B.B.Z.b.r.q.t.t.r.t.r.g.8.. . . . u.!.B.Z.v.q.w.d.u.o . . . < ^.B.B.B.!.^.^.^.2 . . . O Z.I.B.B.B.B.B.!.u.. . . . 8.g.r.r.t.t.t.q.r.b.Z.B.B.B.        ",
"        B.B.B.Z.m.u.u.u.u.u.y.u.v.9.. . . . u.!.B.Z.v.t.u.g.d.O . . . , !.B.B.B.b.b.b.!., . . . O Z.U.b.B.B.B.B.!.u.. . . . 9.v.u.a.u.u.u.u.u.b.Z.B.B.B.        ",
"        Z.B.Z.Z.B.u.u.i.u.u.t.t.v.2 . . . . u.^.B.D.b.q.w.d.u.X . . . , ^.Z.Z.Z.Z.Z.Z.^., . . . X I.T.B.B.Z.V.Z.^.t.. . . . 8.b.u.u.u.u.u.u.u.B.Z.Z.B.Z.        ",
"        b.b.M.B.b.t.u.u.u.u.d.u.b.9.o o O o u.T.b.B.v.u.u.g.d.@ o o o 1 T.m.m.m.b.b.B.T.1 O O O # B.I.b.m.m.m.m.T.u.O O O O 9.g.u.u.y.u.u.t.u.b.B.b.b.m.        ",
"        u.u.u.t.u.u.u.t.t.b.Z.B.Z.b.y.i.i.d.u.u.u.r.d.Z.B.Z.Z.d.i.d.d.u.u.u.u.u.u.u.u.q.v.U.Z.Z.B.u.t.u.u.u.u.u.r.d.I.Z.I.I.d.t.u.u.u.i.u.u.u.u.t.u.u.u.        ",
"        y.t.t.u.t.u.u.u.r.b.I.B.Z.B.d.d.g.g.u.t.t.w.d.I.Z.B.Z.g.d.g.g.i.r.t.u.t.t.t.t.q.b.T.I.T.Z.t.r.t.t.t.t.u.q.d.T.T.U.T.d.r.u.u.u.u.u.u.u.u.t.t.t.t.        ",
"        p.a.a.a.p.a.p.p.y.M.I.C.D.B.y.u.a.u.p.a.a.y.l.D.S.S.S.a.u.y.p.a.a.a.a.a.a.a.a.u.z.S.C.C.M.p.p.a.a.a.a.a.y.f.C.C.C.S.f.y.a.a.a.a.d.a.a.a.d.a.a.a.        ",
"        h.h.h.h.h.h.h.h.e.A.E.K.W.F.s.j.l.l.h.h.h.e.c.P.P.P.K.z.s.j.j.j.f.l.l.j.h.h.h.e.x.P.J.P.F.j.j.j.j.j.f.l.s.z.L.J.L.L.k.s.h.h.h.j.l.l.j.l.l.l.f.l.        ",
"        X.X.X.+.X...f ' f ] [ ] ] ` i p W W ..@.X.E X.#.#.o.%.( a s s a p p i a X.+.X.E O.#.O.%.o./ s s s a p p i / 1.3.&.&...d ....f s s s s p W W p p         ",
"        v b v b v h h l z q 4 8 8 8 3 3 3 & l M v b z t g h h q 8 8 q 8 3 3 & 4 v b z b l t j h g 8 8 q q 4 3 3 & 8 b v z v h g h l t 8 8 q q 3 3 3 3 4         ",
"        c c c n c j j j k e 0 w e 8 4 4 5 3 k m c n x j j j j w 0 w w 0 4 4 5 9 x n c n x j j k j 0 w w w 9 3 4 * 0 m n c n k j j j u 0 0 w w 4 4 4 4 4         ",
"        c c c c c j j j k w 9 0 0 0 3 5 3 * j m x c x j j j j 0 0 0 0 8 3 4 = 4 x n x c k u j k u 0 0 0 w 6 3 6 * 9 n n c c k u j j u 9 9 0 0 5 5 4 5 4         ",
"        n n n m n j k k x y w w e w 4 4 5 3 x S m m c j j x k e w w e 0 5 4 5 9 n m m m c j k k j w w e e 9 4 4 3 0 m m n m k k j x j w w e e 4 4 4 4 4         ",
"        T L L L L c n n n x k k x j 0 w 0 0 m L T L B c c n n x j k x u 0 w 0 e D L L L m c n n n j k x x e w w 9 u L L L L m c n n c j j x k e 0 w w w         ",
"        L L L L D n c n n x j k x j 0 w 0 0 m F L L B c n n n j j k x u 0 w 0 e D L L L m c n n n k j k x e 0 w 7 y T L L T m c c n c j k k k e w w w w         ",
"        L L L L T c c n n k j k k j 0 w 0 9 m L L L S x c n n k j j k r 0 w 0 w D L L L m x c n c j j k k e 0 w 9 y L L L L n c n n x j j k h w 0 w 0 w         ",
"        L L L L D c c c n k j j k u 0 0 0 0 n L L L S c c c c k j k k u 0 0 0 e B L L L m c n n c j j j k e 0 w 4 y T L L L m x c n c j j k k e 0 w w w         ",
"        L L L L T c c n n x j j k j 0 0 9 9 m T L L S c c n c k j j k u 0 0 9 w D L L L m c c n n j j k x e 0 w 7 y L L L T n c c n c j j j k w 0 w 0 w         ",
"        L L L L D c c c n k j j k j 0 0 0 0 n L L T A x c n c k j j k r 0 w 0 e B L L L m x n n c j j k j e 0 w 9 y T L L T m x n n x j j j j w 0 0 w w         ",
"        L L L L D c c n n k j j k u 0 w 9 9 m L L L S c c n c j j j k u 0 w 0 w V L L L m x n n c j j k x e 0 w 7 y L L L L m c c n c j j k j w 0 w w w         ",
"        L L L L D c c n n k j k k j 0 0 0 0 n L L L S c c c n k j j x y 0 w 0 w B L L L m c c n c j j k k e 0 w 9 y L L L L n x c n x j j k k w 0 w w 0         ",
"        L L L L T c c n n k j j k u 0 w 9 9 m L L L S x c n n j j j k y 9 w 9 e B L L L m x c n c j j k k e 0 w 7 y L L L L n c c n c j j k k w 0 0 w 0         ",
"        L L L L D c c n n x j j x j 0 0 0 0 n L L L S c c n n j j j x u 0 w 0 w D L L L m c n n c j j k k e 0 w 9 y T L L L n c c n x j j k j w 0 w w w         ",
"        L L L L D c c n n k j j k j 0 w 0 9 n T L L S c c n c j j k k y 0 w 0 e B L L L m c c n n j j j k e 0 w 4 y L L D T n c c n x j j k k e 0 w w w         ",
"        L L L L L c c n n x j j k u 0 0 0 9 m L L L S c c n n k j j x y 0 w 9 w D L L L m c n n n j j x x e 0 w 9 y L L T T m c n n c j j k j w 0 w 0 w         ",
"        L L L L L c c n n x j j x u 0 w 9 9 m L L L B c c n n k j j x r 9 w 0 e D L L L m c c n c j j j x e 0 w 9 y L L L L m c c n c j j k k e 0 w 0 w         ",
"        n n n n n j j k k u y y u y 0 w 0 0 x m n n c j j k k u y y u e 0 w 0 w c m n n x j j x j u y y u w 0 w 9 e m m n n k j k k j y y y u w 0 w w w         ",
"        c c c c c j j j j u y y y y 0 w 0 0 x n c c x j j j j y e y y e 0 w 0 w c n c n k j j j j y y y y e 0 w 9 e n n c c k u j j j y y y y w 0 0 w w         ",
"        n c c n c j j j k u y y y y 0 w 0 0 x n c n x j j j j u y y u e 0 w 0 w c n c n x j k j j y y y y e 0 w 9 e m n n c k j j k u y y u y w w w 0 w         ",
"        n c c n n j j j j u y y u y w 0 0 0 x m c n c j j k j u y y u e 0 w 0 w c n c n x j k k j y y y u w 0 w 0 e n n n n k j j k j y y y y w 0 0 w w         ",
"          c c n c j j j j u y u y y 0 w 0 9 x m c n x j j j j y y y u e 0 w 0 w c n c n k j j j j y y y y e 0 w 9 e m n c c k j j j u y y y u e w w w           ",
"                                                                                                                                                                ",
"                                                                                                                                                                ",
"                                                                                                                                                                ",
"                                                                                                                                                                "
};
