/* XPM */
static char *_3ee58bbca9f4432d0ce1c8357e14666wKnSJgIRhS6YY93p[] = {
/* columns rows colors chars-per-pixel */
"64 64 6 1 ",
"  c None",
". c #3F301B",
"X c #544027",
"o c #406020",
"O c #547F2A",
"+ c #6FA538",
/* pixels */
"                                                                ",
"                                                                ",
"                                                                ",
"                                                                ",
"                                                                ",
"                                                                ",
"                                                                ",
"                                                                ",
"                                                                ",
"                                                                ",
"                                                                ",
"                           ++++++++++                           ",
"                        ++++++++++++++++                        ",
"                      ++++++++++++++++++++                      ",
"                     +++++++OOOOOOOO+++++++                     ",
"                     ++++OOOOOOOOOOOOOO++++                     ",
"                    ++++OOOOOOOOOOOOOOOO++++                    ",
"                    +++OOOOOOOOOOOOOOOOOO+++                    ",
"                    +++OOOOOOOOOOOOOOOOOO+++                    ",
"                    +++OOOOOOOOOOOOOOOOOO+++                    ",
"                    OOOooOOOOOOOOOOOOOOooOOO                    ",
"                     OOoooooOOOOOOOOOooooOO                     ",
"                     OOooooooooooooooooooOO                     ",
"                      OOooooooooooooooooOO                      ",
"                  +++++++oooooooooooooo++++++++                 ",
"               ++++++++++++oooooooooo++++++++++++               ",
"              ++++++++++++++ ...... ++++++++++++++              ",
"             +++++OOOOO+++++ X..... ++++++OOOO++++              ",
"             +++OOOOOOOOXXoo XX.... ooXXOOOOOOOO+++             ",
"             +++OOOOOOOOXXXXXXXXX...XXXXOOOOOOOO+++             ",
"             ++OOOOOOOOO.....XXXX.......OOOOOOOOO+++            ",
"            +++OOOOOOOOOoo...XXXX.....ooOOOOOOOOO+++            ",
"            +++OOOOOOOOooooo XXXX.. oooooOOOOOOOO+++            ",
"            +++OOOOOOOOooooo XXXX.. oooooOOOOOOOO+++            ",
"            ++++OOOOOOoooooo XXXX.. ooooooOOOOOOO+++            ",
"            ++++OOOOooooooo  XXXX..  oooooooOOOO++++            ",
"            OOOOooooooooo    XXXX..    oooooooooOOOO            ",
"             OOOoooooooo     XXXX..     ooooooooOOO             ",
"               Ooooooooo     XXXX..     ooooooooOO              ",
"            ++++++++ooooo    XXXX..    oooo+++++++++            ",
"        ++++++++++++++oooo   XXXX..   ooo++++++++++++++         ",
"        +++++++++++++++ooo   XXXX..   ooo+++++++++++++++        ",
"       +++++++OOO+++++++oo   XXXX..   oo+++++OOOO+++++++        ",
"       +++++OOOOOOO+++++ooo  XXXX..  ooo++++OOOOOOO++++++       ",
"      +++++OOOOOOOOOooooXoo  XXXX..  ooXoooOOOOOOOOO+++++       ",
"      +++++OOOOOOOOOooooXXo  XXXX..  oXXoooOOOOOOOOO++++++      ",
"      +++++OOOOOOOOOOoooXXX  XXXX..  XXXoooOOOOOOOOOO+++++      ",
"      ++++OOOOOOOOOOOooo.XXX XXXX.. XXX.oooOOOOOOOOOO+++++      ",
"      ++++OOOOOOOOOOOooo..XX XXXX...XX..oooOOOOOOOOOO+++++      ",
"      ++++OOOOOOOOOOOooo...XXXXXX...X...oooOOOOOOOOOO+++++      ",
"      ++++OOOOOOOOOOoooo ...XXXXX......oooooOOOOOOOOO+++++      ",
"       ++++OOOOOOOOOoooo  ...XXXX.....ooooooOOOOOOOO++++++      ",
"       ++OOoooOOOOoooooo    .XXXX...    oooooOOOOOooOOOO+       ",
"       +OOOooooooooooooo     XXXX..      oooooooooooOOOO+       ",
"        OOOOooooooooooo      XXXX..      ooooooooooooOOO        ",
"          OOooooooooo        XXXX..       oooooooooooO          ",
"            ooooooo          XXXX..         oooooooo            ",
"                             XXX...                             ",
"                             XXX...                             ",
"                             XXX...                             ",
"                             XX....                             ",
"                             ......                             ",
"                             ......                             ",
"                             ......                             "
};
